<svg xmlns="http://www.w3.org/2000/svg" viewBox="0 0 1133.86 708.66"><defs><style>.cls-1,.cls-2{fill:none;}.cls-1,.cls-2,.cls-4{stroke:#000;stroke-miterlimit:10;}.cls-1{stroke-width:2px;}.cls-3{fill:#fbb20b;}.cls-4{fill:#fff;}.cls-5{fill:#321974;}</style></defs><title>Artboard 1</title><g id="Layer_11" data-name="Layer 11"><polyline class="cls-1" points="391.92 309.82 414.77 353.61 431.9 309.82"/><polyline class="cls-1" points="475.69 309.82 452.84 309.82 452.84 353.61 475.69 353.61"/><line class="cls-2" x1="466.17" y1="331.71" x2="452.84" y2="331.71"/><polyline class="cls-1" points="614.66 309.82 591.82 309.82 591.82 353.61 614.66 353.61"/><line class="cls-2" x1="605.14" y1="331.71" x2="591.82" y2="331.71"/><polyline class="cls-1" points="713.66 309.82 690.81 309.82 690.81 353.61 713.66 353.61"/><line class="cls-2" x1="704.14" y1="331.71" x2="690.81" y2="331.71"/><path class="cls-1" d="M498.53,355.69V308.1s19-3.81,19,13.32-19,15.23-19,15.23l22.85,19"/><path class="cls-1" d="M650.83,355.69V308.1s19-3.81,19,13.32-19,15.23-19,15.23l22.85,19"/><polyline class="cls-1" points="536.61 355.99 536.61 308.39 554.7 326.48 573.73 307.44 573.73 352.18"/><line class="cls-1" x1="633.7" y1="309.82" x2="633.7" y2="353.61"/><polyline class="cls-1" points="730.79 353.61 730.79 309.82 761.25 353.61 761.25 309.82"/><path class="cls-2" d="M408.45,313.54c-4.5-1.59-7.35-6-9.38-10.32a20.66,20.66,0,0,1-2.38-8.94A12.07,12.07,0,0,1,414.57,284a4.77,4.77,0,0,1,1.86,1.59c1.56,2.54-.87,6.78,1.6,8.45-1.36-4.45,3.26-9.51,7.81-8.57a13.51,13.51,0,0,1,4.77,2.44c1.51,1,3.2,2.46,3,4.28-.34,3.2-6.11,4.46-5.17,7.54.2.65.71,1.25.59,1.92s-.8,1-1.41,1.33L423.3,305"/><path class="cls-2" d="M393.26,319.66c-4.18,3.75-11.28,2.23-15.09-1.91s-5-10-5.46-15.62c-.24-3.11-.21-6.52,1.7-9,1.21-1.58,3-2.56,4.38-4,4.94-5.5,1-14.59,3.85-21.41a13.52,13.52,0,0,1,4.54-5.57,17.49,17.49,0,0,1,21.42,1.07"/><path class="cls-2" d="M407.93,282.36a40.74,40.74,0,0,1-2.15-13.59,9.14,9.14,0,0,1,.83-4.27c1.19-2.22,3.81-3.27,6.31-3.59a17.19,17.19,0,0,1,14.61,5.41c2.33,2.56,3.89,5.86,6.68,7.91,2,1.48,4.51,2.17,6.69,3.42a14.56,14.56,0,0,1,1.69,24.07c-3.51,2.75-8,3.73-12.4,4.63"/><path class="cls-2" d="M422.49,260.76c.2-2.85,3.37-4.73,6.23-4.66s5.48,1.52,8.06,2.77,5.44,2.38,8.24,1.76c1.3-.28,2.6-.94,3.89-.64a5.36,5.36,0,0,1,2.6,1.88,128.23,128.23,0,0,1,11.21,15.44l4.21,6.46a15.8,15.8,0,0,1,1.41,2.46,12.1,12.1,0,0,1,.73,5.82,22.22,22.22,0,0,1-10.36,16.8"/><path class="cls-3" d="M692.26,366.75a8.85,8.85,0,0,1,.88,5.33c-.57,2.87-3.07,4.93-4.69,7.37a13.6,13.6,0,0,0-2.26,8.16c.21,4.14,2.3,8.11,2,12.25-.48,5.61-5.62,10.05-11.16,11.09s-11.25-.7-16.22-3.33l-.61-.3c2.14-4.48,4.13-9.1,8.67-10.3a23.73,23.73,0,0,0,3.59-.84c3.49-1.48,3.91-6.26,3-9.94a27.19,27.19,0,0,0-20.31-19.61l-5.48.54c-.48-1.64-.42-3.41-.8-5.07,0-.05,0-.11,0-.17l1-.26c6.34-.27,12.43-2.42,18.68-3.6s13.13-1.22,18.42,2.32A15.37,15.37,0,0,1,692.26,366.75Z"/><path class="cls-3" d="M675.41,386.24c.92,3.68.5,8.46-3,9.94a23.73,23.73,0,0,1-3.59.84c-4.54,1.2-6.53,5.82-8.67,10.3a42.39,42.39,0,0,1-2.11,4c-4.13,6.76-12.17,10.51-20.08,10.93s-15.75-2-22.91-5.46c-6.36-3-12.62-7.1-15.95-13.31l-.25-.3c3-2.48,6-5.09,9.83-5.72l0-.05a8.71,8.71,0,0,0,1.2.66c4.08,1.83,8.72-.3,12.66-2.38,2.78-1.46,5.62-3,7.6-5.42a4.29,4.29,0,0,0,.4-.55l.3.22c.38,2.06,2.4,3.39,4.34,4.19a22.84,22.84,0,0,0,21.61-2.47,8,8,0,0,0,3.58-4.63,9.62,9.62,0,0,0-.28-3.88c-.52-2.53-1.09-5.14-2.63-7.24-2.21-3-6.27-4.6-7.66-8.09a4.48,4.48,0,0,1-.22-.68l5.48-.54A27.19,27.19,0,0,1,675.41,386.24Z"/><path class="cls-3" d="M630.58,389.75a4.29,4.29,0,0,1-.4.55c-2,2.44-4.82,4-7.6,5.42-3.94,2.08-8.58,4.21-12.66,2.38a8.71,8.71,0,0,1-1.2-.66,18,18,0,0,1-1.84-1.45,23.63,23.63,0,0,1-5.58-7.2,34.82,34.82,0,0,1-1.9-5.36q-1.15-3.78-2.27-7.58a15.49,15.49,0,0,1-.86-4.15,6,6,0,0,1,0-.61c.23-4.51,4.55-8.3,9.12-8.55,4.76-.25,9.31,2.84,11.71,7l-1.31,1.14a4.55,4.55,0,1,0,8.05-3.63,6,6,0,0,0-.42-.46l.25-.23c1.29-5.75,5.65-11,11.4-12.22s12.3,2.17,13.67,7.82h0c0,.06,0,.12,0,.17.38,1.66.32,3.43.8,5.07a4.48,4.48,0,0,0,.22.68c1.39,3.49,5.45,5.09,7.66,8.09,1.54,2.1,2.11,4.71,2.63,7.24a9.62,9.62,0,0,1,.28,3.88,8,8,0,0,1-3.58,4.63,22.84,22.84,0,0,1-21.61,2.47c-1.94-.8-4-2.13-4.34-4.19Z"/><path class="cls-3" d="M608.72,397.44l0,.05c-3.81.63-6.8,3.24-9.83,5.72-.78.64-1.56,1.27-2.34,1.86a31.74,31.74,0,0,1-16.89,6.15c-4,.25-8.58-.53-10.94-3.81-1.91-2.6-1.93-6.13-1.35-9.31s1.65-6.3,1.67-9.51c0-4.06-1.6-8-1.37-12.07.38-6.23,5.62-11.71,11.77-12.78a16.51,16.51,0,0,1,16.1,7.29l.78.06a6,6,0,0,0,0,.61,15.49,15.49,0,0,0,.86,4.15q1.11,3.79,2.27,7.58a34.82,34.82,0,0,0,1.9,5.36,23.63,23.63,0,0,0,5.58,7.2A18,18,0,0,0,608.72,397.44Z"/><path class="cls-2" d="M615.81,370.65a4.55,4.55,0,1,0,8.05-3.63,6,6,0,0,0-.42-.46c-.51-.52-1.12-.95-1.69-1.43a13.35,13.35,0,0,1-4.55-7.58"/><path class="cls-2" d="M623.69,366.33c1.29-5.75,5.65-11,11.4-12.22s12.3,2.17,13.67,7.82h0c0,.06,0,.12,0,.17.38,1.66.32,3.43.8,5.07a4.48,4.48,0,0,0,.22.68c1.39,3.49,5.45,5.09,7.66,8.09,1.54,2.1,2.11,4.71,2.63,7.24a9.62,9.62,0,0,1,.28,3.88,8,8,0,0,1-3.58,4.63,22.84,22.84,0,0,1-21.61,2.47c-1.94-.8-4-2.13-4.34-4.19"/><path class="cls-2" d="M631,372.77c2.51,5.38,3,12.22-.44,17a4.29,4.29,0,0,1-.4.55c-2,2.44-4.82,4-7.6,5.42-3.94,2.08-8.58,4.21-12.66,2.38a8.71,8.71,0,0,1-1.2-.66,18,18,0,0,1-1.84-1.45,23.63,23.63,0,0,1-5.58-7.2,34.82,34.82,0,0,1-1.9-5.36q-1.15-3.78-2.27-7.58a15.49,15.49,0,0,1-.86-4.15,6,6,0,0,1,0-.61c.23-4.51,4.55-8.3,9.12-8.55,4.76-.25,9.31,2.84,11.71,7"/><path class="cls-2" d="M655.1,366.63a27.19,27.19,0,0,1,20.31,19.61c.92,3.68.5,8.46-3,9.94a23.73,23.73,0,0,1-3.59.84c-4.54,1.2-6.53,5.82-8.67,10.3a42.39,42.39,0,0,1-2.11,4c-4.13,6.76-12.17,10.51-20.08,10.93s-15.75-2-22.91-5.46c-6.36-3-12.62-7.1-15.95-13.31"/><path class="cls-2" d="M595.51,371a16.51,16.51,0,0,0-16.1-7.29c-6.15,1.07-11.39,6.55-11.77,12.78-.23,4.05,1.41,8,1.37,12.07,0,3.21-1.1,6.33-1.67,9.51s-.56,6.71,1.35,9.31c2.36,3.28,6.91,4.06,10.94,3.81a31.74,31.74,0,0,0,16.89-6.15c.78-.59,1.56-1.22,2.34-1.86,3-2.48,6-5.09,9.83-5.72"/><path class="cls-2" d="M649.73,361.67c6.34-.27,12.43-2.42,18.68-3.6s13.13-1.22,18.42,2.32a15.37,15.37,0,0,1,5.43,6.36,8.85,8.85,0,0,1,.88,5.33c-.57,2.87-3.07,4.93-4.69,7.37a13.6,13.6,0,0,0-2.26,8.16c.21,4.14,2.3,8.11,2,12.25-.48,5.61-5.62,10.05-11.16,11.09s-11.25-.7-16.22-3.33"/><line class="cls-4" x1="481.14" y1="117.02" x2="481.14" y2="271.4"/><polyline class="cls-2" points="545.9 116.5 481.14 195.65 545.9 270.88"/><path class="cls-2" d="M481.84,195.67a3.42,3.42,0,0,1,.65-2,1.19,1.19,0,0,1,1.84,0c.23.41.09,1,.33,1.36a2.78,2.78,0,0,0,.64.59,2.12,2.12,0,0,1-2,3.65"/><path class="cls-2" d="M485.56,196l.68-.08c.48-.87.93-2,.25-2.77-.18-.2-.43-.33-.62-.53s-.37-.75-.63-1.08-.82-.5-1.06-.16"/><path class="cls-2" d="M486.79,192.59a2.57,2.57,0,0,1,2.19,1.93,14.53,14.53,0,0,1,.4,3.09,7.19,7.19,0,0,1,.06,3c-.31,1-1.5,1.71-2.33,1.15"/><path class="cls-2" d="M489.31,197.32a1.79,1.79,0,0,0,2.11-1,5,5,0,0,0,.38-2.5,2.57,2.57,0,0,0-.5-1.79,5.57,5.57,0,0,0-1.5-.76,11.09,11.09,0,0,1-1.34-1,4.13,4.13,0,0,0-4-.49"/><path class="cls-2" d="M491.57,191.83a1.2,1.2,0,0,1,1.52.29,3.52,3.52,0,0,1,.68,1.54l.71,2.8a10,10,0,0,1,.44,4.62,5,5,0,0,1-7.09,3.48"/><path class="cls-2" d="M494.08,195.24c-.52-1.83.5-3.73.63-5.63s-1.15-4.26-3.14-4.3c-.78,0-1.61.31-2.34,0"/><path class="cls-2" d="M512.49,156.71a4.45,4.45,0,0,1-2.35-1.32,1.56,1.56,0,0,1,.4-2.33c1-.38,1.89.73,2.4,1.67a2.89,2.89,0,0,0-1,.89"/><path class="cls-2" d="M509.52,152.23a1.59,1.59,0,0,0-1.93.45,2.88,2.88,0,0,0-.58,2,3.81,3.81,0,0,0,1.14,2.66,2.32,2.32,0,0,0,3,.15"/><path class="cls-2" d="M506.61,152.5a2.11,2.11,0,0,1,1.17-2.9,3,3,0,0,1,3.19,1,1.55,1.55,0,0,0,.57.51c.43.15.85-.22,1.29-.35a1.77,1.77,0,0,1,1.95,1.1,5.16,5.16,0,0,1,.23,2.41"/><path class="cls-2" d="M507.29,149.11a3.26,3.26,0,0,0-2.66,2.28,9.41,9.41,0,0,0-.31,3.67l.16,3.53a2.06,2.06,0,0,0,.22,1,1.76,1.76,0,0,0,.6.55,3.46,3.46,0,0,0,4.28-.8"/><path class="cls-2" d="M506.2,149.7c-.16-1.45,1.3-2.6,2.72-2.92s2.94-.17,4.33-.6a3.37,3.37,0,0,1,1.48-.29c.81.13,1.29,1,1.59,1.75a18.74,18.74,0,0,1,1.1,4.09"/><path class="cls-2" d="M543,267.41c-.09-.86-1-1.4-1.27-2.24a1.52,1.52,0,0,1,2.16-1.59,1.27,1.27,0,0,0,1.31,1.12,1.65,1.65,0,0,1-2.24,1.75"/><path class="cls-2" d="M542.46,263.72a3.78,3.78,0,0,0,.12-2.5,1.51,1.51,0,0,0-2-.87,28,28,0,0,0-2.18,3.29"/><path class="cls-2" d="M540,260.83c-.73-.27-.75-1.39-.2-1.93a3.08,3.08,0,0,1,2.16-.65,4.9,4.9,0,0,0,2.26-.32,4,4,0,0,1,.77-.39c.82-.21,1.5.6,1.94,1.31"/><path class="cls-2" d="M541.81,257.85a3,3,0,0,0-4.14-.23c-.27.25-.55.58-.92.56s-.44-.18-.67-.19-.46.33-.26.44"/><path class="cls-5" d="M484.94,152.54a11.08,11.08,0,0,1-.38,9.44,3.42,3.42,0,0,1-1.22,1.43c-1.5.82-3-.9-4.53-1.37-2.61-.8-5.41,3-4.24,5.65-2.73-.38-5.54-1-7.73-2.82a8.06,8.06,0,0,1-2.78-8.07c.23-.8.8-1.67,1.52-1.54l.55-.78,3.07,2.21c.61.44,1.41.87,2,.38a1.93,1.93,0,0,0,.55-.84c1.23-2.63,2.45-5.23,3.67-7.86a8.06,8.06,0,0,0,6.53-4.32c.27-.12.29,0,.46.19s.25.53.42.76c.38.51,1.5.42,1.44,1.07a3.25,3.25,0,0,0-.76,3.29A21.06,21.06,0,0,0,484.94,152.54Z"/><path class="cls-5" d="M484.45,120.36c1.08,1.62.24,4-.84,5.72s-2.5,3.42-2.5,5.48a10.85,10.85,0,0,0,.23,1.88c-1-3.12-3.12-7.54-4.49-9.17a5.22,5.22,0,0,0-2.76-1.72l.09-.34a12.64,12.64,0,0,0-3.65-3.1,3,3,0,0,0-.5-.19,2.75,2.75,0,0,1,1.64-1.91,5.56,5.56,0,0,1,3.3.14c2.18.53,4.36,1.08,6.54,1.63A4.61,4.61,0,0,1,484.45,120.36Z"/><path class="cls-5" d="M459.58,139.27l-.17-.38c-2.45-2.53-2.09-7.69.69-10a19.79,19.79,0,0,0,2.3-1.77c1.87-2.05,1.6-5.78,3.66-7.59a4,4,0,0,1,4-.61,3,3,0,0,1,.5.19,12.64,12.64,0,0,1,3.65,3.1l-.09.34a5.22,5.22,0,0,1,2.76,1.72c1.37,1.63,3.47,6,4.49,9.17a5,5,0,0,1,0,2.33h0c-2,.95-4.45-.38-6.72-.18-2.53.21-4.85,2.67-5.21,5.51a6.54,6.54,0,0,0,4.85,7.17,4.71,4.71,0,0,0,1.18.1c-1.22,2.63-2.44,5.23-3.67,7.86a1.93,1.93,0,0,1-.55.84c-.61.49-1.41.06-2-.38l-3.07-2.21-3.2-2.3a16,16,0,0,1-5-4.93,6.86,6.86,0,0,1-.65-5.41A4.36,4.36,0,0,1,459.58,139.27Z"/><path class="cls-2" d="M461.3,139.15a2.82,2.82,0,0,0-1.72.12,4.36,4.36,0,0,0-2.32,2.57,6.86,6.86,0,0,0,.65,5.41,16,16,0,0,0,5,4.93l3.2,2.3,3.07,2.21c.61.44,1.41.87,2,.38a1.93,1.93,0,0,0,.55-.84c1.23-2.63,2.45-5.23,3.67-7.86v0"/><path class="cls-2" d="M481.36,135.77c.17-.1.34-.19.52-.31a16.91,16.91,0,0,0-.54-2c-1-3.12-3.12-7.54-4.49-9.17a5.22,5.22,0,0,0-2.76-1.72,3.75,3.75,0,0,0-4,1.15c-.55.64-.89,1.46-1.5,2a9.36,9.36,0,0,1-2.33,1.32c-3.08,1.67-4.45,6.54-2.72,9.72.52.94,1.66,1.76,2.42,1"/><path class="cls-2" d="M465.58,155.26c-.72-.13-1.29.74-1.52,1.54a8.06,8.06,0,0,0,2.78,8.07c2.19,1.81,5,2.44,7.73,2.82-1.17-2.7,1.63-6.45,4.24-5.65,1.56.47,3,2.19,4.53,1.37a3.42,3.42,0,0,0,1.22-1.43,11.08,11.08,0,0,0,.38-9.44,21.06,21.06,0,0,1-1.41-3.18,3.25,3.25,0,0,1,.76-3.29c.06-.65-1.06-.56-1.44-1.07-.17-.23-.25-.51-.42-.76s-.19-.31-.46-.19a8.06,8.06,0,0,1-6.53,4.32,4.71,4.71,0,0,1-1.18-.1,6.54,6.54,0,0,1-4.85-7.17c.36-2.84,2.68-5.3,5.21-5.51,2.27-.2,4.71,1.13,6.72.18"/><path class="cls-2" d="M459.41,138.89c-2.45-2.53-2.09-7.69.69-10a19.79,19.79,0,0,0,2.3-1.77c1.87-2.05,1.6-5.78,3.66-7.59a4,4,0,0,1,4-.61,3,3,0,0,1,.5.19,12.64,12.64,0,0,1,3.65,3.1"/><path class="cls-2" d="M470.07,119.93a1.93,1.93,0,0,1,0-1,2.75,2.75,0,0,1,1.64-1.91,5.56,5.56,0,0,1,3.3.14c2.18.53,4.36,1.08,6.54,1.63a4.61,4.61,0,0,1,2.94,1.58c1.08,1.62.24,4-.84,5.72s-2.5,3.42-2.5,5.48a10.85,10.85,0,0,0,.23,1.88,5,5,0,0,1,0,2.33h0a.8.8,0,0,1,0,.26"/><path class="cls-2" d="M480.47,228.76c-1.32-1.18-3.87-.17-4.9-1.59a2,2,0,0,1,1.22-2.86,3.2,3.2,0,0,1,3.2,1.22"/><path class="cls-2" d="M479.38,220.43c.59,0,.82-.92.46-1.39a2,2,0,0,0-1.62-.63,4.49,4.49,0,0,0-4.19,1.92c-.82,1.39-.07,3.6,1.53,3.81a3.16,3.16,0,0,0-1.32,3,4.77,4.77,0,0,0,1.53,3,3.68,3.68,0,0,0,2.28,1.14,2.12,2.12,0,0,0,2.15-1.14"/><path class="cls-2" d="M473,220.92a3.38,3.38,0,0,0-2.74,3.37,5.24,5.24,0,0,0,2.18,4c1,.74,2.23,1.39,2.42,2.61a6.33,6.33,0,0,1-.15,1.71,3.83,3.83,0,0,0,6.74,2.85"/><path class="cls-2" d="M471,228.21c-1.34-.76-2.69-1.52-4-2.3s-2.78-1.83-2.57-3.29a3.65,3.65,0,0,1,.7-1.49c.54-.82,1.07-1.66,1.62-2.47a9.35,9.35,0,0,1,2.19-2.57,3.14,3.14,0,0,1,3.2-.44c.76.4,1.48,1.22,2.26.89a2.18,2.18,0,0,0,.71-.57c1.79-1.69,4.78-.84,6.83.53"/><path class="cls-2" d="M467.62,227c-2.12,2-1.89,5.43-1.51,8.34.21,1.72.86,3.87,2.57,4,.63.06,1.26-.17,1.89-.08a2.7,2.7,0,0,1,2,2.06c.28,1,.25,2,.46,3a4.69,4.69,0,0,0,2.18,3.21,3.07,3.07,0,0,0,3.7-.43c.89-1,.93-2.48,1.67-3.56"/><path class="cls-2" d="M681.1,269.2c-9.75,7.22-23.76-2.11-20.69-13.9.58-2.24,2.46-4.66,4.71-4.09,1.51.38,2.39,2,2.76,3.5,1.47,6-2.48,12.53-8.21,14.76s-12.56.49-17.14-3.61c-4.08-3.65-6.51-9.79-4.15-14.73.74-1.52,2.35-3,4-2.42a3.73,3.73,0,0,1,1.94,2.25c4.7,11.21-7.77,23.1-18.27,15.65-5.41-3.85-6.8-11.2-7.25-17.82a131.85,131.85,0,0,1,3.23-39,1.82,1.82,0,0,1,.78-1.32,1.62,1.62,0,0,1,1.27.12c6.3,2.56,6.2,9.78,5.26,15.44-3.18,19.09-12.14,37.69-27.18,49.89-6.86,5.56-14.78,9.67-21.91,14.88s-13.69,11.94-16.07,20.45c-1.36,4.85-1,10.76,2.94,14,4.42,3.64,11.51,1.93,15.45-2.24s5.45-10,6.53-15.64c3.67-19.21,4-38.87,4.3-58.43a27.47,27.47,0,0,1-3.71,18c-.92,1.51-2.23,3.06-4,3.1-2.07,0-3.54-2-4.35-3.9a23.93,23.93,0,0,1-1.09-15.35,78.71,78.71,0,0,1-3.7,18.22,7.44,7.44,0,0,1-2.2,3.74c-3.45,2.59-8.12-2.19-8.16-6.5s4.25-11.82,1.94-15.8c-5.54-9.52-17.24-2.37-20,5.48-2,5.55-.52,16.33,6.32,18.15,5.88,1.57,10.19-4,10.17-9.39"/></g></svg>