<svg xmlns="http://www.w3.org/2000/svg" viewBox="0 0 1133.86 708.66"><defs><style>.cls-1,.cls-2,.cls-4{fill:none;}.cls-1,.cls-2,.cls-5{stroke:#fff;}.cls-1,.cls-2,.cls-4,.cls-5{stroke-miterlimit:10;}.cls-1{stroke-width:2px;}.cls-3{fill:#fbb20b;}.cls-4{stroke:#000;}.cls-5{fill:#fff;}.cls-6{fill:#321974;}</style></defs><title>Artboard 1</title><g id="Layer_11" data-name="Layer 11"><polyline class="cls-1" points="391.92 394.73 414.77 438.52 431.9 394.73"/><polyline class="cls-1" points="475.69 394.73 452.84 394.73 452.84 438.52 475.69 438.52"/><line class="cls-2" x1="466.17" y1="416.63" x2="452.84" y2="416.63"/><polyline class="cls-1" points="614.66 394.73 591.82 394.73 591.82 438.52 614.66 438.52"/><line class="cls-2" x1="605.14" y1="416.63" x2="591.82" y2="416.63"/><polyline class="cls-1" points="713.66 394.73 690.81 394.73 690.81 438.52 713.66 438.52"/><line class="cls-2" x1="704.14" y1="416.63" x2="690.81" y2="416.63"/><path class="cls-1" d="M498.53,440.6V393s19-3.81,19,13.32-19,15.24-19,15.24l22.85,19"/><path class="cls-1" d="M650.83,440.6V393s19-3.81,19,13.32-19,15.24-19,15.24l22.85,19"/><polyline class="cls-1" points="536.61 440.9 536.61 393.3 554.7 411.39 573.73 392.35 573.73 437.09"/><line class="cls-1" x1="633.7" y1="394.73" x2="633.7" y2="438.52"/><polyline class="cls-1" points="730.79 438.52 730.79 394.73 761.25 438.52 761.25 394.73"/><path class="cls-2" d="M408.45,398.45c-4.5-1.59-7.35-6-9.38-10.32a20.66,20.66,0,0,1-2.38-8.94,12.07,12.07,0,0,1,17.88-10.33,4.86,4.86,0,0,1,1.86,1.59c1.56,2.54-.87,6.78,1.6,8.45-1.36-4.45,3.26-9.51,7.81-8.56a13.49,13.49,0,0,1,4.77,2.43c1.51,1,3.2,2.46,3,4.29-.34,3.2-6.11,4.46-5.17,7.53.2.65.71,1.25.59,1.92s-.8,1-1.41,1.33l-4.33,2.06"/><path class="cls-2" d="M393.26,404.57c-4.18,3.76-11.28,2.24-15.09-1.9s-5-10-5.46-15.63c-.24-3.11-.21-6.51,1.7-9,1.21-1.58,3-2.56,4.38-4,4.94-5.5,1-14.59,3.85-21.41a13.43,13.43,0,0,1,4.54-5.56,17.48,17.48,0,0,1,21.42,1.06"/><path class="cls-2" d="M407.93,367.27a40.72,40.72,0,0,1-2.15-13.58,9.16,9.16,0,0,1,.83-4.28c1.19-2.22,3.81-3.27,6.31-3.58a17.15,17.15,0,0,1,14.61,5.4c2.33,2.56,3.89,5.86,6.68,7.91,2,1.48,4.51,2.17,6.69,3.43a14.55,14.55,0,0,1,1.69,24.06c-3.51,2.75-8,3.73-12.4,4.63"/><path class="cls-2" d="M422.49,345.67c.2-2.85,3.37-4.73,6.23-4.66s5.48,1.52,8.06,2.78,5.44,2.37,8.24,1.76c1.3-.29,2.6-.95,3.89-.65a5.36,5.36,0,0,1,2.6,1.88,129,129,0,0,1,11.21,15.44l4.21,6.46a15.8,15.8,0,0,1,1.41,2.46,12.1,12.1,0,0,1,.73,5.82,22.22,22.22,0,0,1-10.36,16.8"/><path class="cls-3" d="M692.26,451.66a8.85,8.85,0,0,1,.88,5.33c-.57,2.88-3.07,4.93-4.69,7.37a13.61,13.61,0,0,0-2.26,8.17c.21,4.13,2.3,8.11,2,12.24-.48,5.61-5.62,10.05-11.16,11.1s-11.25-.71-16.22-3.34l-.61-.3c2.14-4.47,4.13-9.1,8.67-10.3a23.73,23.73,0,0,0,3.59-.84c3.49-1.48,3.91-6.26,3-9.93a27.16,27.16,0,0,0-20.31-19.61l-5.48.53c-.48-1.64-.42-3.41-.8-5.06,0-.06,0-.12,0-.18l1-.26c6.34-.27,12.43-2.42,18.68-3.6s13.13-1.22,18.42,2.32A15.37,15.37,0,0,1,692.26,451.66Z"/><path class="cls-3" d="M675.41,471.16c.92,3.67.5,8.45-3,9.93a23.73,23.73,0,0,1-3.59.84c-4.54,1.2-6.53,5.83-8.67,10.3a43.82,43.82,0,0,1-2.11,4c-4.13,6.75-12.17,10.5-20.08,10.92s-15.75-2-22.91-5.46c-6.36-3-12.62-7.1-15.95-13.31l-.25-.3c3-2.48,6-5.09,9.83-5.71l0-.06a8.77,8.77,0,0,0,1.2.67c4.08,1.82,8.72-.31,12.66-2.38,2.78-1.47,5.62-3,7.6-5.43a4.29,4.29,0,0,0,.4-.55l.3.23c.38,2.05,2.4,3.39,4.34,4.18a22.84,22.84,0,0,0,21.61-2.47,8,8,0,0,0,3.58-4.63,9.63,9.63,0,0,0-.28-3.88c-.52-2.53-1.09-5.14-2.63-7.23-2.21-3-6.27-4.61-7.66-8.1a4.15,4.15,0,0,1-.22-.68l5.48-.53A27.16,27.16,0,0,1,675.41,471.16Z"/><path class="cls-3" d="M630.58,474.66a4.29,4.29,0,0,1-.4.55c-2,2.44-4.82,4-7.6,5.43-3.94,2.07-8.58,4.2-12.66,2.38a8.77,8.77,0,0,1-1.2-.67,16.73,16.73,0,0,1-1.84-1.45,23.59,23.59,0,0,1-5.58-7.19,34.94,34.94,0,0,1-1.9-5.37q-1.15-3.78-2.27-7.58a15.49,15.49,0,0,1-.86-4.15,6,6,0,0,1,0-.61c.23-4.51,4.55-8.3,9.12-8.55,4.76-.24,9.31,2.84,11.71,7l-1.31,1.14a4.55,4.55,0,1,0,8.05-3.63c-.13-.15-.27-.31-.42-.46l.25-.23c1.29-5.75,5.65-11,11.4-12.22s12.3,2.17,13.67,7.82h0c0,.06,0,.12,0,.18.38,1.65.32,3.42.8,5.06a4.15,4.15,0,0,0,.22.68c1.39,3.49,5.45,5.09,7.66,8.1,1.54,2.09,2.11,4.7,2.63,7.23a9.63,9.63,0,0,1,.28,3.88,8,8,0,0,1-3.58,4.63,22.84,22.84,0,0,1-21.61,2.47c-1.94-.79-4-2.13-4.34-4.18Z"/><path class="cls-3" d="M608.72,482.35l0,.06c-3.81.62-6.8,3.23-9.83,5.71q-1.17,1-2.34,1.86a31.74,31.74,0,0,1-16.89,6.15c-4,.25-8.58-.53-10.94-3.8-1.91-2.61-1.93-6.14-1.35-9.31s1.65-6.31,1.67-9.52c0-4.06-1.6-8-1.37-12.07.38-6.23,5.62-11.71,11.77-12.78a16.51,16.51,0,0,1,16.1,7.29l.78.06a6,6,0,0,0,0,.61,15.49,15.49,0,0,0,.86,4.15q1.11,3.8,2.27,7.58a34.94,34.94,0,0,0,1.9,5.37,23.59,23.59,0,0,0,5.58,7.19A16.73,16.73,0,0,0,608.72,482.35Z"/><path class="cls-4" d="M615.81,455.56a4.55,4.55,0,1,0,8.05-3.63c-.13-.15-.27-.31-.42-.46-.51-.51-1.12-1-1.69-1.43a13.36,13.36,0,0,1-4.55-7.57"/><path class="cls-4" d="M623.69,451.24c1.29-5.75,5.65-11,11.4-12.22s12.3,2.17,13.67,7.82h0c0,.06,0,.12,0,.18.38,1.65.32,3.42.8,5.06a4.15,4.15,0,0,0,.22.68c1.39,3.49,5.45,5.09,7.66,8.1,1.54,2.09,2.11,4.7,2.63,7.23a9.63,9.63,0,0,1,.28,3.88,8,8,0,0,1-3.58,4.63,22.84,22.84,0,0,1-21.61,2.47c-1.94-.79-4-2.13-4.34-4.18"/><path class="cls-4" d="M631,457.68c2.51,5.38,3,12.22-.44,17a4.29,4.29,0,0,1-.4.55c-2,2.44-4.82,4-7.6,5.43-3.94,2.07-8.58,4.2-12.66,2.38a8.77,8.77,0,0,1-1.2-.67,16.73,16.73,0,0,1-1.84-1.45,23.59,23.59,0,0,1-5.58-7.19,34.94,34.94,0,0,1-1.9-5.37q-1.15-3.78-2.27-7.58a15.49,15.49,0,0,1-.86-4.15,6,6,0,0,1,0-.61c.23-4.51,4.55-8.3,9.12-8.55,4.76-.24,9.31,2.84,11.71,7"/><path class="cls-4" d="M655.1,451.55a27.16,27.16,0,0,1,20.31,19.61c.92,3.67.5,8.45-3,9.93a23.73,23.73,0,0,1-3.59.84c-4.54,1.2-6.53,5.83-8.67,10.3a43.82,43.82,0,0,1-2.11,4c-4.13,6.75-12.17,10.5-20.08,10.92s-15.75-2-22.91-5.46c-6.36-3-12.62-7.1-15.95-13.31"/><path class="cls-4" d="M595.51,455.94a16.51,16.51,0,0,0-16.1-7.29c-6.15,1.07-11.39,6.55-11.77,12.78-.23,4.05,1.41,8,1.37,12.07,0,3.21-1.1,6.34-1.67,9.52s-.56,6.7,1.35,9.31c2.36,3.27,6.91,4.05,10.94,3.8A31.74,31.74,0,0,0,596.52,490q1.17-.89,2.34-1.86c3-2.48,6-5.09,9.83-5.71"/><path class="cls-4" d="M649.73,446.58c6.34-.27,12.43-2.42,18.68-3.6s13.13-1.22,18.42,2.32a15.37,15.37,0,0,1,5.43,6.36,8.85,8.85,0,0,1,.88,5.33c-.57,2.88-3.07,4.93-4.69,7.37a13.61,13.61,0,0,0-2.26,8.17c.21,4.13,2.3,8.11,2,12.24-.48,5.61-5.62,10.05-11.16,11.1s-11.25-.71-16.22-3.34"/><line class="cls-5" x1="481.14" y1="201.93" x2="481.14" y2="356.31"/><polyline class="cls-2" points="545.9 201.41 481.14 280.56 545.9 355.79"/><path class="cls-2" d="M481.84,280.58a3.42,3.42,0,0,1,.65-2,1.19,1.19,0,0,1,1.84,0c.23.41.09.95.33,1.36a2.78,2.78,0,0,0,.64.59,2.12,2.12,0,0,1-2,3.65"/><path class="cls-2" d="M485.56,280.88l.68-.07c.48-.88.93-2.05.25-2.78-.18-.2-.43-.33-.62-.53s-.37-.74-.63-1.08-.82-.5-1.06-.15"/><path class="cls-2" d="M486.79,277.5a2.57,2.57,0,0,1,2.19,1.93,14.53,14.53,0,0,1,.4,3.09,7.19,7.19,0,0,1,.06,3c-.31,1-1.5,1.71-2.33,1.15"/><path class="cls-2" d="M489.31,282.23a1.79,1.79,0,0,0,2.11-1,5,5,0,0,0,.38-2.5,2.59,2.59,0,0,0-.5-1.79,5.88,5.88,0,0,0-1.5-.76,11.09,11.09,0,0,1-1.34-1,4.13,4.13,0,0,0-4-.49"/><path class="cls-2" d="M491.57,276.74a1.2,1.2,0,0,1,1.52.29,3.52,3.52,0,0,1,.68,1.54l.71,2.8a10,10,0,0,1,.44,4.62,5,5,0,0,1-7.09,3.48"/><path class="cls-2" d="M494.08,280.15c-.52-1.83.5-3.73.63-5.63s-1.15-4.25-3.14-4.3c-.78,0-1.61.31-2.34,0"/><path class="cls-2" d="M512.49,241.63a4.51,4.51,0,0,1-2.35-1.32,1.57,1.57,0,0,1,.4-2.34c1-.38,1.89.73,2.4,1.67a2.82,2.82,0,0,0-1,.9"/><path class="cls-2" d="M509.52,237.14a1.59,1.59,0,0,0-1.93.45,2.89,2.89,0,0,0-.58,2,3.8,3.8,0,0,0,1.14,2.66,2.3,2.3,0,0,0,3,.15"/><path class="cls-2" d="M506.61,237.41a2.11,2.11,0,0,1,1.17-2.9,3,3,0,0,1,3.19,1,1.47,1.47,0,0,0,.57.51c.43.15.85-.22,1.29-.35a1.76,1.76,0,0,1,1.95,1.11,5.13,5.13,0,0,1,.23,2.41"/><path class="cls-2" d="M507.29,234a3.23,3.23,0,0,0-2.66,2.27,9.41,9.41,0,0,0-.31,3.67l.16,3.53a2.06,2.06,0,0,0,.22,1,1.67,1.67,0,0,0,.6.55,3.45,3.45,0,0,0,4.28-.8"/><path class="cls-2" d="M506.2,234.61c-.16-1.45,1.3-2.6,2.72-2.92s2.94-.16,4.33-.6a3.37,3.37,0,0,1,1.48-.29c.81.13,1.29,1,1.59,1.75a18.74,18.74,0,0,1,1.1,4.09"/><path class="cls-2" d="M543,352.33c-.09-.87-1-1.41-1.27-2.25a1.52,1.52,0,0,1,2.16-1.59,1.27,1.27,0,0,0,1.31,1.12,1.65,1.65,0,0,1-2.24,1.75"/><path class="cls-2" d="M542.46,348.63a3.75,3.75,0,0,0,.12-2.49,1.5,1.5,0,0,0-2-.88,29.74,29.74,0,0,0-2.18,3.29"/><path class="cls-2" d="M540,345.74c-.73-.27-.75-1.39-.2-1.93a3.08,3.08,0,0,1,2.16-.65,4.77,4.77,0,0,0,2.26-.32,4,4,0,0,1,.77-.39c.82-.2,1.5.61,1.94,1.31"/><path class="cls-2" d="M541.81,342.76a3,3,0,0,0-4.14-.23c-.27.25-.55.58-.92.56s-.44-.18-.67-.18-.46.32-.26.44"/><path class="cls-6" d="M474.18,207.12a12.8,12.8,0,0,0-3.65-3.1,4.29,4.29,0,0,0-.5-.19,2.71,2.71,0,0,1,1.64-1.9,5.56,5.56,0,0,1,3.3.13q3.27.8,6.54,1.64a4.57,4.57,0,0,1,2.94,1.58c1.08,1.61.24,4-.84,5.71s-2.5,3.42-2.5,5.48a11.09,11.09,0,0,0,.23,1.89c-1-3.13-3.12-7.54-4.49-9.18a5,5,0,0,0-2.76-1.71Z"/><path class="cls-6" d="M469.2,241.6c.61.44,1.41.88,2,.38a1.93,1.93,0,0,0,.55-.84c1.23-2.62,2.45-5.23,3.67-7.86A8,8,0,0,0,482,229c.27-.12.29,0,.46.19s.25.53.42.76c.38.51,1.5.42,1.44,1.07a3.25,3.25,0,0,0-.76,3.29,21.06,21.06,0,0,0,1.41,3.18,11.08,11.08,0,0,1-.38,9.44,3.36,3.36,0,0,1-1.22,1.43c-1.5.82-3-.89-4.53-1.37-2.61-.8-5.41,3-4.24,5.65-2.73-.38-5.54-1-7.73-2.81a8.09,8.09,0,0,1-2.78-8.08c.23-.8.8-1.67,1.52-1.54l.55-.78Z"/><path class="cls-6" d="M470,203.83a4.29,4.29,0,0,1,.5.19,12.8,12.8,0,0,1,3.65,3.1l-.09.35a5,5,0,0,1,2.76,1.71c1.37,1.64,3.47,6,4.49,9.18a4.92,4.92,0,0,1,0,2.32h0c-2,.95-4.45-.38-6.72-.17-2.53.21-4.85,2.66-5.21,5.5a6.56,6.56,0,0,0,4.85,7.18,5.22,5.22,0,0,0,1.18.09c-1.22,2.63-2.44,5.24-3.67,7.86a1.93,1.93,0,0,1-.55.84c-.61.5-1.41.06-2-.38l-3.07-2.21-3.2-2.3a16,16,0,0,1-5-4.93,6.86,6.86,0,0,1-.65-5.41,4.36,4.36,0,0,1,2.32-2.57l-.17-.38c-2.45-2.53-2.09-7.69.69-10a21,21,0,0,0,2.3-1.78c1.87-2.05,1.6-5.78,3.66-7.59A4,4,0,0,1,470,203.83Z"/><path class="cls-2" d="M461.3,224.07a2.75,2.75,0,0,0-1.72.11,4.36,4.36,0,0,0-2.32,2.57,6.86,6.86,0,0,0,.65,5.41,16,16,0,0,0,5,4.93l3.2,2.3,3.07,2.21c.61.44,1.41.88,2,.38a1.93,1.93,0,0,0,.55-.84c1.23-2.62,2.45-5.23,3.67-7.86v0"/><path class="cls-2" d="M481.36,220.68c.17-.1.34-.19.52-.31a16.82,16.82,0,0,0-.54-2c-1-3.13-3.12-7.54-4.49-9.18a5,5,0,0,0-2.76-1.71,3.72,3.72,0,0,0-4,1.14c-.55.65-.89,1.46-1.5,2A9.36,9.36,0,0,1,466.3,212c-3.08,1.67-4.45,6.55-2.72,9.73.52.93,1.66,1.75,2.42,1"/><path class="cls-2" d="M465.58,240.17c-.72-.13-1.29.74-1.52,1.54a8.09,8.09,0,0,0,2.78,8.08c2.19,1.8,5,2.43,7.73,2.81-1.17-2.7,1.63-6.45,4.24-5.65,1.56.48,3,2.19,4.53,1.37a3.36,3.36,0,0,0,1.22-1.43,11.08,11.08,0,0,0,.38-9.44,21.06,21.06,0,0,1-1.41-3.18,3.25,3.25,0,0,1,.76-3.29c.06-.65-1.06-.56-1.44-1.07-.17-.23-.25-.51-.42-.76s-.19-.31-.46-.19a8,8,0,0,1-6.53,4.32,5.22,5.22,0,0,1-1.18-.09,6.56,6.56,0,0,1-4.85-7.18c.36-2.84,2.68-5.29,5.21-5.5,2.27-.21,4.71,1.12,6.72.17"/><path class="cls-2" d="M459.41,223.8c-2.45-2.53-2.09-7.69.69-10a21,21,0,0,0,2.3-1.78c1.87-2.05,1.6-5.78,3.66-7.59a4,4,0,0,1,4-.61,4.29,4.29,0,0,1,.5.19,12.8,12.8,0,0,1,3.65,3.1"/><path class="cls-2" d="M470.07,204.84a1.93,1.93,0,0,1,0-1,2.71,2.71,0,0,1,1.64-1.9,5.56,5.56,0,0,1,3.3.13q3.27.8,6.54,1.64a4.57,4.57,0,0,1,2.94,1.58c1.08,1.61.24,4-.84,5.71s-2.5,3.42-2.5,5.48a11.09,11.09,0,0,0,.23,1.89,4.92,4.92,0,0,1,0,2.32h0a.8.8,0,0,1,0,.26"/><path class="cls-2" d="M480.47,313.68c-1.32-1.18-3.87-.18-4.9-1.6a2,2,0,0,1,1.22-2.86,3.2,3.2,0,0,1,3.2,1.22"/><path class="cls-2" d="M479.38,305.34c.59,0,.82-.92.46-1.39a2,2,0,0,0-1.62-.63,4.49,4.49,0,0,0-4.19,1.92c-.82,1.39-.07,3.6,1.53,3.81a3.16,3.16,0,0,0-1.32,2.95,4.77,4.77,0,0,0,1.53,3,3.63,3.63,0,0,0,2.28,1.14A2.12,2.12,0,0,0,480.2,315"/><path class="cls-2" d="M473,305.83a3.38,3.38,0,0,0-2.74,3.37,5.24,5.24,0,0,0,2.18,4c1,.74,2.23,1.39,2.42,2.61a6.33,6.33,0,0,1-.15,1.71,3.92,3.92,0,0,0,2.3,3.9,4,4,0,0,0,4.44-1"/><path class="cls-2" d="M471,313.12c-1.34-.76-2.69-1.52-4-2.3s-2.78-1.83-2.57-3.29a3.71,3.71,0,0,1,.7-1.49c.54-.82,1.07-1.65,1.62-2.47a9.35,9.35,0,0,1,2.19-2.57,3.16,3.16,0,0,1,3.2-.44c.76.4,1.48,1.22,2.26.89a2.18,2.18,0,0,0,.71-.57c1.79-1.69,4.78-.83,6.83.54"/><path class="cls-2" d="M467.62,311.91c-2.12,2-1.89,5.42-1.51,8.33.21,1.72.86,3.87,2.57,4,.63.06,1.26-.17,1.89-.08a2.7,2.7,0,0,1,2,2.06c.28,1,.25,2,.46,3a4.73,4.73,0,0,0,2.18,3.22,3.08,3.08,0,0,0,3.7-.44c.89-1,.93-2.48,1.67-3.56"/><path class="cls-2" d="M681.1,354.12c-9.75,7.21-23.76-2.12-20.69-13.91.58-2.24,2.46-4.65,4.71-4.09,1.51.38,2.39,2,2.76,3.5,1.47,6-2.48,12.53-8.21,14.76s-12.56.49-17.14-3.61c-4.08-3.65-6.51-9.79-4.15-14.73.74-1.52,2.35-3,4-2.42a3.72,3.72,0,0,1,1.94,2.26C649,347.08,636.5,359,626,351.52c-5.41-3.84-6.8-11.2-7.25-17.82a131.85,131.85,0,0,1,3.23-39,1.82,1.82,0,0,1,.78-1.32,1.62,1.62,0,0,1,1.27.12c6.3,2.56,6.2,9.78,5.26,15.44-3.18,19.1-12.14,37.69-27.18,49.89-6.86,5.56-14.78,9.67-21.91,14.89s-13.69,11.94-16.07,20.44c-1.36,4.85-1,10.77,2.94,14,4.42,3.64,11.51,1.93,15.45-2.23s5.45-10,6.53-15.65c3.67-19.2,4-38.87,4.3-58.42a27.44,27.44,0,0,1-3.71,18c-.92,1.51-2.23,3.06-4,3.11-2.07.05-3.54-2-4.35-3.91a23.93,23.93,0,0,1-1.09-15.35,78.71,78.71,0,0,1-3.7,18.22,7.4,7.4,0,0,1-2.2,3.74c-3.45,2.6-8.12-2.19-8.16-6.5s4.25-11.82,1.94-15.8c-5.54-9.52-17.24-2.37-20,5.48-2,5.55-.52,16.33,6.32,18.15,5.88,1.57,10.19-4,10.17-9.38"/></g></svg>