<?xml version="1.0" encoding="utf-8"?>
<!-- Generator: Adobe Illustrator 23.0.3, SVG Export Plug-In . SVG Version: 6.00 Build 0)  -->
<svg version="1.1" id="Layer_1" xmlns="http://www.w3.org/2000/svg" xmlns:xlink="http://www.w3.org/1999/xlink" x="0px" y="0px"
	 viewBox="0 0 428 340" style="enable-background:new 0 0 428 340;" xml:space="preserve">
<style type="text/css">
	.st0{fill:none;stroke:#FFFFFF;stroke-width:2;stroke-miterlimit:10;}
	.st1{fill:none;stroke:#FFFFFF;stroke-miterlimit:10;}
	.st2{fill:#FBB20B;}
	.st3{fill:none;stroke:#000000;stroke-miterlimit:10;}
	.st4{fill:#321974;}
</style>
<title>Artboard 1</title>
<g id="Layer_11">
	<polyline class="st0" points="43.9,214.1 66.8,257.9 83.9,214.1 	"/>
	<polyline class="st0" points="127.7,214.1 104.8,214.1 104.8,257.9 127.7,257.9 	"/>
	<line class="st1" x1="118.2" y1="236" x2="104.8" y2="236"/>
	<polyline class="st0" points="266.7,214.1 243.8,214.1 243.8,257.9 266.7,257.9 	"/>
	<line class="st1" x1="257.1" y1="236" x2="243.8" y2="236"/>
	<polyline class="st0" points="365.7,214.1 342.8,214.1 342.8,257.9 365.7,257.9 	"/>
	<line class="st1" x1="356.1" y1="236" x2="342.8" y2="236"/>
	<path class="st0" d="M150.5,259.9v-47.6c0,0,19-3.8,19,13.3s-19,15.2-19,15.2l22.8,19"/>
	<path class="st0" d="M302.8,259.9v-47.6c0,0,19-3.8,19,13.3s-19,15.2-19,15.2l22.8,19"/>
	<polyline class="st0" points="188.6,260.2 188.6,212.6 206.7,230.7 225.7,211.7 225.7,256.4 	"/>
	<line class="st0" x1="285.7" y1="214.1" x2="285.7" y2="257.9"/>
	<polyline class="st0" points="382.8,257.9 382.8,214.1 413.2,257.9 413.2,214.1 	"/>
	<path class="st1" d="M60.5,217.8c-4.5-1.6-7.4-6-9.4-10.3c-1.5-2.8-2.3-5.8-2.4-8.9c0.1-6.7,5.7-12,12.3-11.8
		c1.9,0,3.9,0.6,5.6,1.5c0.7,0.4,1.4,0.9,1.9,1.6c1.6,2.5-0.9,6.8,1.6,8.5c-1.4-4.5,3.3-9.5,7.8-8.6c1.7,0.5,3.4,1.3,4.8,2.4
		c1.5,1,3.2,2.5,3,4.3c-0.3,3.2-6.1,4.5-5.2,7.5c0.2,0.6,0.7,1.2,0.6,1.9s-0.8,1-1.4,1.3l-4.3,2.1"/>
	<path class="st1" d="M45.3,223.9c-4.2,3.8-11.3,2.2-15.1-1.9s-5-10-5.5-15.6c-0.2-3.1-0.2-6.5,1.7-9c1.2-1.6,3-2.6,4.4-4
		c4.9-5.5,1-14.6,3.9-21.4c1-2.2,2.6-4.2,4.5-5.6c6.5-4.6,15.4-4.1,21.4,1.1"/>
	<path class="st1" d="M59.9,186.6c-1.5-4.4-2.2-9-2.1-13.6c-0.1-1.5,0.2-2.9,0.8-4.3c1.2-2.2,3.8-3.3,6.3-3.6
		c5.5-0.6,10.9,1.4,14.6,5.4c2.3,2.6,3.9,5.9,6.7,7.9c2,1.5,4.5,2.2,6.7,3.4c7,4,9.3,12.9,5.3,19.9c-0.9,1.6-2.2,3-3.6,4.2
		c-3.5,2.8-8,3.7-12.4,4.6"/>
	<path class="st1" d="M74.5,165c0.2-2.9,3.4-4.7,6.2-4.7s5.5,1.5,8.1,2.8s5.4,2.4,8.2,1.8c1.3-0.3,2.6-1,3.9-0.6
		c1,0.3,1.9,1,2.6,1.9c4.1,4.9,7.9,10,11.2,15.4l4.2,6.5c0.5,0.8,1,1.6,1.4,2.5c0.7,1.9,1,3.8,0.7,5.8c-0.6,6.9-4.5,13.1-10.4,16.8"
		/>
	<path class="st2" d="M344.3,271c0.8,1.6,1.1,3.5,0.9,5.3c-0.6,2.9-3.1,4.9-4.7,7.4c-1.6,2.4-2.4,5.3-2.3,8.2
		c0.2,4.1,2.3,8.1,2,12.2c-0.5,5.6-5.6,10-11.2,11.1s-11.2-0.7-16.2-3.3l-0.6-0.3c2.1-4.5,4.1-9.1,8.7-10.3c1.2-0.2,2.4-0.5,3.6-0.8
		c3.5-1.5,3.9-6.3,3-9.9c-2.6-9.8-10.4-17.4-20.3-19.6l-5.5,0.5c-0.5-1.6-0.4-3.4-0.8-5.1c0-0.1,0-0.1,0-0.2l1-0.3
		c6.3-0.3,12.4-2.4,18.7-3.6s13.1-1.2,18.4,2.3C341.3,266.2,343.1,268.4,344.3,271z"/>
	<path class="st2" d="M327.4,290.5c0.9,3.7,0.5,8.5-3,9.9c-1.2,0.4-2.4,0.7-3.6,0.8c-4.5,1.2-6.5,5.8-8.7,10.3
		c-0.6,1.4-1.3,2.7-2.1,4c-4.1,6.8-12.2,10.5-20.1,10.9s-15.8-2-22.9-5.5c-6.4-3-12.6-7.1-16-13.3l-0.2-0.3c3-2.5,6-5.1,9.8-5.7
		v-0.1c0.4,0.3,0.8,0.5,1.2,0.7c4.1,1.8,8.7-0.3,12.7-2.4c2.8-1.5,5.6-3,7.6-5.4c0.1-0.2,0.3-0.4,0.4-0.5l0.3,0.2
		c0.4,2,2.4,3.4,4.3,4.2c7.2,2.9,15.3,2,21.6-2.5c1.7-1,3-2.7,3.6-4.6c0.2-1.3,0.1-2.6-0.3-3.9c-0.5-2.5-1.1-5.1-2.6-7.2
		c-2.2-3-6.3-4.6-7.7-8.1c-0.1-0.2-0.2-0.4-0.2-0.7l5.5-0.5C317,273.1,324.8,280.7,327.4,290.5z"/>
	<path class="st2" d="M282.6,294c-0.1,0.2-0.3,0.4-0.4,0.5c-2,2.4-4.8,4-7.6,5.4c-3.9,2.1-8.6,4.2-12.7,2.4
		c-0.4-0.2-0.8-0.4-1.2-0.7c-0.6-0.4-1.3-0.9-1.8-1.5c-2.3-2-4.2-4.5-5.6-7.2c-0.8-1.7-1.4-3.5-1.9-5.4c-0.8-2.5-1.5-5-2.3-7.6
		c-0.5-1.3-0.8-2.7-0.9-4.1c0-0.2,0-0.4,0-0.6c0.2-4.5,4.5-8.3,9.1-8.5c4.8-0.2,9.3,2.8,11.7,7l-1.3,1.1c0.4,2.5,2.8,4.1,5.3,3.7
		c2.5-0.4,4.1-2.8,3.7-5.3c-0.1-0.7-0.4-1.4-0.9-2c-0.1-0.1-0.3-0.3-0.4-0.5l0.2-0.2c1.3-5.8,5.7-11,11.4-12.2s12.3,2.2,13.7,7.8
		l0,0c0,0.1,0,0.1,0,0.2c0.4,1.6,0.3,3.4,0.8,5.1c0.1,0.2,0.1,0.5,0.2,0.7c1.4,3.5,5.5,5.1,7.7,8.1c1.5,2.1,2.1,4.7,2.6,7.2
		c0.4,1.3,0.5,2.6,0.3,3.9c-0.6,1.9-1.8,3.6-3.6,4.6c-6.3,4.4-14.5,5.3-21.6,2.5c-1.9-0.8-4-2.1-4.3-4.2L282.6,294z"/>
	<path class="st2" d="M260.7,301.7L260.7,301.7c-3.8,0.7-6.8,3.3-9.8,5.8c-0.8,0.7-1.6,1.3-2.3,1.9c-4.9,3.6-10.8,5.8-16.9,6.1
		c-4,0.2-8.6-0.5-10.9-3.8c-1.9-2.6-1.9-6.1-1.3-9.3s1.7-6.3,1.7-9.5c0-4.1-1.6-8-1.4-12.1c0.4-6.2,5.6-11.7,11.8-12.8
		c6.3-0.9,12.6,2,16.1,7.3l0.8,0.1c0,0.2,0,0.4,0,0.6c0.1,1.4,0.4,2.8,0.9,4.1c0.7,2.5,1.5,5.1,2.3,7.6c0.5,1.8,1.1,3.6,1.9,5.4
		c1.4,2.7,3.3,5.2,5.6,7.2C259.5,300.8,260.1,301.2,260.7,301.7z"/>
	<path class="st3" d="M267.8,274.9c0.4,2.5,2.8,4.1,5.3,3.7c2.5-0.4,4.1-2.8,3.7-5.3c-0.1-0.7-0.4-1.4-0.9-2
		c-0.1-0.1-0.3-0.3-0.4-0.5c-0.5-0.5-1.1-1-1.7-1.4c-2.3-1.9-3.9-4.6-4.5-7.6"/>
	<path class="st3" d="M275.7,270.6c1.3-5.8,5.7-11,11.4-12.2s12.3,2.2,13.7,7.8l0,0c0,0.1,0,0.1,0,0.2c0.4,1.6,0.3,3.4,0.8,5.1
		c0.1,0.2,0.1,0.5,0.2,0.7c1.4,3.5,5.5,5.1,7.7,8.1c1.5,2.1,2.1,4.7,2.6,7.2c0.4,1.3,0.5,2.6,0.3,3.9c-0.6,1.9-1.8,3.6-3.6,4.6
		c-6.3,4.4-14.5,5.3-21.6,2.5c-1.9-0.8-4-2.1-4.3-4.2"/>
	<path class="st3" d="M283,277c2.5,5.4,3,12.2-0.4,17c-0.1,0.2-0.3,0.4-0.4,0.5c-2,2.4-4.8,4-7.6,5.4c-3.9,2.1-8.6,4.2-12.7,2.4
		c-0.4-0.2-0.8-0.4-1.2-0.7c-0.6-0.4-1.3-0.9-1.8-1.5c-2.3-2-4.2-4.5-5.6-7.2c-0.8-1.7-1.4-3.5-1.9-5.4c-0.8-2.5-1.5-5-2.3-7.6
		c-0.5-1.3-0.8-2.7-0.9-4.1c0-0.2,0-0.4,0-0.6c0.2-4.5,4.5-8.3,9.1-8.5c4.8-0.2,9.3,2.8,11.7,7"/>
	<path class="st3" d="M307.1,270.9c9.9,2.2,17.7,9.8,20.3,19.6c0.9,3.7,0.5,8.5-3,9.9c-1.2,0.4-2.4,0.7-3.6,0.8
		c-4.5,1.2-6.5,5.8-8.7,10.3c-0.6,1.4-1.3,2.7-2.1,4c-4.1,6.8-12.2,10.5-20.1,10.9s-15.8-2-22.9-5.5c-6.4-3-12.6-7.1-16-13.3"/>
	<path class="st3" d="M247.5,275.3c-3.5-5.3-9.8-8.2-16.1-7.3c-6.2,1.1-11.4,6.5-11.8,12.8c-0.2,4,1.4,8,1.4,12.1
		c0,3.2-1.1,6.3-1.7,9.5s-0.6,6.7,1.3,9.3c2.4,3.3,6.9,4,10.9,3.8c6.1-0.4,12-2.5,16.9-6.1c0.8-0.6,1.6-1.2,2.3-1.9
		c3-2.5,6-5.1,9.8-5.7"/>
	<path class="st3" d="M301.7,265.9c6.3-0.3,12.4-2.4,18.7-3.6s13.1-1.2,18.4,2.3c2.4,1.6,4.2,3.8,5.4,6.4c0.8,1.6,1.1,3.5,0.9,5.3
		c-0.6,2.9-3.1,4.9-4.7,7.4c-1.6,2.4-2.4,5.3-2.3,8.2c0.2,4.1,2.3,8.1,2,12.2c-0.5,5.6-5.6,10-11.2,11.1s-11.2-0.7-16.2-3.3"/>
	<line class="st1" x1="133.1" y1="21.3" x2="133.1" y2="175.7"/>
	<polyline class="st1" points="197.9,20.8 133.1,99.9 197.9,175.1 	"/>
	<path class="st1" d="M133.8,99.9c0-0.7,0.2-1.4,0.6-2c0.4-0.5,1.2-0.6,1.7-0.2c0.1,0,0.1,0.1,0.2,0.2c0.2,0.4,0.1,1,0.3,1.4
		c0.2,0.2,0.4,0.4,0.6,0.6c0.9,0.7,1,2.1,0.3,3c-0.6,0.7-1.5,0.9-2.3,0.7"/>
	<path class="st1" d="M137.6,100.2l0.7-0.1c0.5-0.9,0.9-2,0.2-2.8c-0.2-0.2-0.4-0.3-0.6-0.5s-0.4-0.7-0.6-1.1s-0.8-0.5-1.1-0.1"/>
	<path class="st1" d="M138.8,96.8c1.1,0.1,1.9,0.9,2.2,1.9c0.2,1,0.4,2,0.4,3.1c0.2,1,0.3,2,0.1,3c-0.3,1-1.5,1.7-2.3,1.1"/>
	<path class="st1" d="M141.3,101.6c0.9,0.2,1.8-0.2,2.1-1c0.3-0.8,0.5-1.6,0.4-2.5c0.1-0.6-0.1-1.3-0.5-1.8c-0.5-0.3-1-0.6-1.5-0.8
		c-0.5-0.3-0.9-0.6-1.3-1c-1.2-0.8-2.7-1-4-0.5"/>
	<path class="st1" d="M143.6,96.1c0.5-0.3,1.2-0.2,1.5,0.3c0.3,0.5,0.6,1,0.7,1.5l0.7,2.8c0.5,1.5,0.7,3.1,0.4,4.6
		c-0.6,2.7-3.2,4.4-5.9,3.9c-0.4-0.1-0.8-0.2-1.2-0.4"/>
	<path class="st1" d="M146.1,99.5c-0.5-1.8,0.5-3.7,0.6-5.6s-1.1-4.2-3.1-4.3c-0.8,0-1.6,0.3-2.3,0"/>
	<path class="st1" d="M164.5,61c-0.9-0.2-1.7-0.7-2.4-1.3c-0.6-0.7-0.5-1.7,0.2-2.2c0.1,0,0.1-0.1,0.2-0.1c1-0.4,1.9,0.7,2.4,1.7
		c-0.4,0.2-0.7,0.5-1,0.9"/>
	<path class="st1" d="M161.5,56.5c-0.7-0.3-1.5-0.1-1.9,0.4c-0.4,0.6-0.6,1.3-0.6,2c0,1,0.4,2,1.1,2.7c0.8,0.8,2.1,0.9,3,0.1"/>
	<path class="st1" d="M158.6,56.8c-0.5-1-0.1-2.3,1-2.8c0.1,0,0.1-0.1,0.2-0.1c1.2-0.3,2.4,0.1,3.2,1c0.1,0.2,0.3,0.4,0.6,0.5
		c0.4,0.1,0.9-0.2,1.3-0.4c0.8-0.1,1.7,0.3,2,1.1c0.3,0.8,0.3,1.6,0.2,2.4"/>
	<path class="st1" d="M159.3,53.3c-1.3,0.2-2.3,1.1-2.7,2.3c-0.3,1.2-0.4,2.4-0.3,3.7l0.2,3.5c0,0.3,0.1,0.7,0.2,1
		c0.2,0.2,0.4,0.4,0.6,0.6c1.4,0.8,3.2,0.4,4.3-0.8"/>
	<path class="st1" d="M158.2,54c-0.2-1.4,1.3-2.6,2.7-2.9s2.9-0.2,4.3-0.6c0.5-0.2,1-0.3,1.5-0.3c0.8,0.1,1.3,1,1.6,1.8
		c0.5,1.3,0.9,2.7,1.1,4.1"/>
	<path class="st1" d="M195,171.7c-0.1-0.9-1-1.4-1.3-2.2c-0.1-0.8,0.5-1.6,1.3-1.7c0.3,0,0.6,0,0.9,0.1c0.1,0.7,0.6,1.1,1.3,1.1
		c0.1,0.9-0.5,1.7-1.4,1.9c-0.3,0-0.6,0-0.8-0.1"/>
	<path class="st1" d="M194.5,168c0.3-0.8,0.4-1.7,0.1-2.5c-0.3-0.8-1.1-1.2-1.9-0.9c0,0-0.1,0-0.1,0c-0.8,1-1.5,2.1-2.2,3.3"/>
	<path class="st1" d="M192,165.1c-0.7-0.3-0.8-1.4-0.2-1.9c0.6-0.5,1.4-0.7,2.2-0.6c0.8,0.1,1.5,0,2.3-0.3c0.2-0.2,0.5-0.3,0.8-0.4
		c0.8-0.2,1.5,0.6,1.9,1.3"/>
	<path class="st1" d="M193.8,162.1c-1.1-1.2-2.9-1.3-4.1-0.2c-0.3,0.2-0.5,0.6-0.9,0.6s-0.4-0.2-0.7-0.2s-0.5,0.3-0.3,0.4"/>
	<path class="st4" d="M126.2,26.5c-1-1.3-2.2-2.3-3.6-3.1c-0.2-0.1-0.3-0.1-0.5-0.2c0.2-0.9,0.8-1.6,1.6-1.9
		c1.1-0.3,2.2-0.2,3.3,0.1c2.2,0.5,4.4,1.1,6.5,1.6c1.1,0.1,2.2,0.7,2.9,1.6c1.1,1.6,0.2,4-0.8,5.7s-2.5,3.4-2.5,5.5
		c0,0.6,0.1,1.3,0.2,1.9c-1-3.1-3.1-7.5-4.5-9.2c-0.7-0.9-1.7-1.5-2.8-1.7L126.2,26.5z"/>
	<path class="st4" d="M121.2,60.9c0.6,0.4,1.4,0.9,2,0.4c0.3-0.2,0.4-0.5,0.5-0.8c1.2-2.6,2.5-5.2,3.7-7.9c2.8-0.2,5.3-1.8,6.6-4.3
		c0.3-0.1,0.3,0,0.5,0.2s0.2,0.5,0.4,0.8c0.4,0.5,1.5,0.4,1.4,1.1c-0.8,0.9-1.1,2.1-0.8,3.3c0.4,1.1,0.9,2.2,1.4,3.2
		c1.3,3,1.1,6.5-0.4,9.4c-0.3,0.6-0.7,1.1-1.2,1.4c-1.5,0.8-3-0.9-4.5-1.4c-2.6-0.8-5.4,3-4.2,5.6c-2.7-0.4-5.5-1-7.7-2.8
		c-2.4-1.9-3.5-5.1-2.8-8.1c0.2-0.8,0.8-1.7,1.5-1.5l0.5-0.8L121.2,60.9z"/>
	<path class="st4" d="M122,23.2c0.2,0.1,0.3,0.1,0.5,0.2c1.4,0.8,2.6,1.8,3.6,3.1l-0.1,0.4c1.1,0.2,2.1,0.8,2.8,1.7
		c1.4,1.6,3.5,6,4.5,9.2c0.2,0.8,0.2,1.6,0,2.3l0,0c-2,0.9-4.5-0.4-6.7-0.2c-2.5,0.2-4.9,2.7-5.2,5.5c-0.4,3.3,1.7,6.3,4.9,7.2
		c0.4,0.1,0.8,0.1,1.2,0.1c-1.2,2.6-2.4,5.2-3.7,7.9c-0.1,0.3-0.3,0.6-0.5,0.8c-0.6,0.5-1.4,0.1-2-0.4l-3.1-2.2l-3.2-2.3
		c-2-1.3-3.7-2.9-5-4.9c-1-1.6-1.2-3.6-0.6-5.4c0.4-1.1,1.2-2.1,2.3-2.6l-0.2-0.4c-2.5-2.5-2.1-7.7,0.7-10c0.8-0.5,1.6-1.1,2.3-1.8
		c1.9-2.1,1.6-5.8,3.7-7.6C119.2,22.9,120.7,22.7,122,23.2z"/>
	<path class="st1" d="M113.3,43.4c-0.6-0.1-1.2-0.1-1.7,0.1c-1.1,0.5-1.9,1.4-2.3,2.6c-0.5,1.8-0.3,3.8,0.6,5.4c1.3,2,3,3.7,5,4.9
		l3.2,2.3l3.1,2.2c0.6,0.4,1.4,0.9,2,0.4c0.3-0.2,0.4-0.5,0.5-0.8c1.2-2.6,2.5-5.2,3.7-7.9l0,0"/>
	<path class="st1" d="M133.4,40c0.2-0.1,0.3-0.2,0.5-0.3c-0.1-0.7-0.3-1.3-0.5-2c-1-3.1-3.1-7.5-4.5-9.2c-0.7-0.9-1.7-1.5-2.8-1.7
		c-1.4-0.5-3,0-4,1.1c-0.5,0.6-0.9,1.5-1.5,2c-0.7,0.6-1.5,1-2.3,1.4c-3.1,1.7-4.5,6.6-2.7,9.7c0.5,0.9,1.7,1.8,2.4,1"/>
	<path class="st1" d="M117.6,59.5c-0.7-0.1-1.3,0.7-1.5,1.5c-0.7,3,0.4,6.1,2.8,8.1c2.2,1.8,5,2.4,7.7,2.8c-1.2-2.7,1.6-6.4,4.2-5.6
		c1.6,0.5,3,2.2,4.5,1.4c0.5-0.4,1-0.8,1.2-1.4c1.5-2.9,1.7-6.4,0.4-9.4c-0.6-1-1-2.1-1.4-3.2c-0.4-1.2-0.1-2.4,0.8-3.3
		c0.1-0.6-1.1-0.6-1.4-1.1c-0.2-0.2-0.2-0.5-0.4-0.8s-0.2-0.3-0.5-0.2c-1.3,2.5-3.7,4.1-6.5,4.3c-0.4,0-0.8,0-1.2-0.1
		c-3.2-0.8-5.3-3.9-4.9-7.2c0.4-2.8,2.7-5.3,5.2-5.5c2.3-0.2,4.7,1.1,6.7,0.2"/>
	<path class="st1" d="M111.4,43.1c-2.5-2.5-2.1-7.7,0.7-10c0.8-0.5,1.6-1.1,2.3-1.8c1.9-2.1,1.6-5.8,3.7-7.6c1.1-0.9,2.7-1.1,4-0.6
		c0.2,0.1,0.3,0.1,0.5,0.2c1.4,0.8,2.6,1.8,3.6,3.1"/>
	<path class="st1" d="M122.1,24.2c-0.1-0.3-0.1-0.7,0-1c0.2-0.9,0.8-1.6,1.6-1.9c1.1-0.3,2.2-0.2,3.3,0.1c2.2,0.5,4.4,1.1,6.5,1.6
		c1.1,0.1,2.2,0.7,2.9,1.6c1.1,1.6,0.2,4-0.8,5.7s-2.5,3.4-2.5,5.5c0,0.6,0.1,1.3,0.2,1.9c0.2,0.8,0.2,1.6,0,2.3l0,0
		c0,0.1,0,0.2,0,0.3"/>
	<path class="st1" d="M132.5,133c-1.3-1.2-3.9-0.2-4.9-1.6c-0.5-1-0.1-2.2,0.8-2.7c0.1-0.1,0.3-0.1,0.4-0.2c1.2-0.2,2.5,0.2,3.2,1.2
		"/>
	<path class="st1" d="M131.4,124.7c0.6,0,0.8-0.9,0.5-1.4c-0.4-0.4-1-0.7-1.6-0.6c-1.6-0.2-3.3,0.6-4.2,1.9
		c-0.8,1.4-0.1,3.6,1.5,3.8c-0.9,0.7-1.5,1.8-1.3,3c0.1,1.2,0.7,2.2,1.5,3c0.6,0.6,1.4,1,2.3,1.1c0.9,0.1,1.7-0.3,2.2-1.1"/>
	<path class="st1" d="M125,125.2c-1.6,0.3-2.8,1.7-2.7,3.4c0.1,1.6,0.9,3.1,2.2,4c1,0.7,2.2,1.4,2.4,2.6c0,0.6,0,1.1-0.1,1.7
		c-0.1,1.7,0.8,3.2,2.3,3.9c1.5,0.6,3.3,0.2,4.4-1"/>
	<path class="st1" d="M123,132.5c-1.3-0.8-2.7-1.5-4-2.3s-2.8-1.8-2.6-3.3c0.1-0.5,0.4-1.1,0.7-1.5c0.5-0.8,1.1-1.6,1.6-2.5
		c0.6-1,1.3-1.9,2.2-2.6c0.9-0.7,2.1-0.9,3.2-0.4c0.8,0.4,1.5,1.2,2.3,0.9c0.3-0.1,0.5-0.3,0.7-0.6c1.8-1.7,4.8-0.8,6.8,0.5"/>
	<path class="st1" d="M119.6,131.3c-2.1,2-1.9,5.4-1.5,8.3c0.2,1.7,0.9,3.9,2.6,4c0.6,0.1,1.3-0.2,1.9-0.1c1,0.2,1.8,1,2,2.1
		c0.3,1,0.2,2,0.5,3c0.2,1.3,1,2.5,2.2,3.2c1.2,0.7,2.7,0.5,3.7-0.4c0.9-1,0.9-2.5,1.7-3.6"/>
	<path class="st1" d="M333.1,173.5c-9.8,7.2-23.8-2.1-20.7-13.9c0.6-2.2,2.5-4.6,4.7-4.1c1.5,0.4,2.4,2,2.8,3.5
		c1.5,6-2.5,12.5-8.2,14.8s-12.6,0.5-17.1-3.6c-4.1-3.6-6.5-9.8-4.2-14.7c0.7-1.5,2.3-3,4-2.4c0.9,0.5,1.6,1.3,1.9,2.3
		c4.7,11.2-7.8,23.1-18.3,15.6c-5.4-3.8-6.8-11.2-7.2-17.8c-0.9-13.1,0.2-26.2,3.2-39c0.1-0.5,0.3-1,0.8-1.3
		c0.4-0.1,0.9-0.1,1.3,0.1c6.3,2.6,6.2,9.8,5.3,15.4c-3.2,19.1-12.1,37.7-27.2,49.9c-6.9,5.6-14.8,9.7-21.9,14.9
		s-13.7,11.9-16.1,20.4c-1.4,4.9-1,10.8,2.9,14c4.4,3.6,11.5,1.9,15.5-2.2s5.5-10,6.5-15.6c3.7-19.2,4-38.9,4.3-58.4
		c0.9,6.2-0.4,12.6-3.7,18c-0.9,1.5-2.2,3.1-4,3.1c-2.1,0-3.5-2-4.3-3.9c-2-4.9-2.4-10.3-1.1-15.4c-0.5,6.2-1.8,12.3-3.7,18.2
		c-0.3,1.4-1.1,2.7-2.2,3.7c-3.5,2.6-8.1-2.2-8.2-6.5s4.2-11.8,1.9-15.8c-5.5-9.5-17.2-2.4-20,5.5c-2,5.5-0.5,16.3,6.3,18.1
		c5.9,1.6,10.2-4,10.2-9.4"/>
</g>
</svg>
