<?xml version="1.0" encoding="utf-8"?>
<!-- Generator: Adobe Illustrator 23.0.3, SVG Export Plug-In . SVG Version: 6.00 Build 0)  -->
<svg version="1.1" xmlns="http://www.w3.org/2000/svg" xmlns:xlink="http://www.w3.org/1999/xlink" x="0px" y="0px"
	 viewBox="0 0 566.9 566.9" style="enable-background:new 0 0 566.9 566.9;" xml:space="preserve">
<style type="text/css">
	.st0{display:none;}
	.st1{display:inline;opacity:0.21;}
	.st2{fill:#321974;stroke:#321974;stroke-miterlimit:10;}
	.st3{fill:#FFE745;stroke:#FFE745;stroke-miterlimit:10;}
	.st4{fill:#FBB20B;}
	.st5{fill:#321974;}
</style>
<g id="Layer_1" class="st0">
	<g class="st1">
		<path d="M256.6,327.9c-1.3-0.3-2.5-0.9-4-0.4c-2.7,0.8-5-1.4-4-4.1c0.8-2.2,0.1-3.3-1.3-4.7c-2.2-2.2-4.1-4.7-6.5-6.8
			c-2.6-2.2-5.9-3.3-8.3-5.9c-1.5-1.7-3.3-3.2-5.1-4.7c-0.4-0.4-0.7-1-1.4-1c-3.1-0.2-3.7-2.9-4.9-4.9c-3.8-6.2-5.8-12.8-5-20.2
			c0.4-3.3,1.8-6.2,3.1-9.7c-0.1-0.2-2.1,0.8-1.4-0.8c0.5-1.1,0.1-2.8,1.5-3.2c0.7-0.2,0.9-0.3,1.1-0.9c0.8-3,3.4-4.6,5.5-6.6
			c1.4-1.3,2.6-3,3.9-4.5c1.7-1.8,3.6-3,5.8-4c6.6-3,13-6.4,18.2-11.3c3.2-3,5.3-7.2,4.8-12.1c-0.1-1.3-0.9-3.7,1.2-3.6
			c2,0.1,0.3,2.5,0.7,3.5c1.4,3.3,0.3,6.7,1.1,9.9c0.4,1.5,0.7,2.8,0,4.3c-0.8,1.6,1,2.8,0.9,4.5c-0.1,2-0.9,4.1-0.7,5.9
			c0.6,5.9-1.2,11.6-1,17.5c0,0.3-0.2,0.7-0.3,1.4c-1.4-1.1-1-2.6-1.1-3.6c-0.4-4-1.3-7.9-2.8-11.5c-2.1-5.1-2.6-5-7.2-3.5
			c-1.8,0.6-3.9,0.3-5.3,1.2c-2.6,1.6-5.5,2.9-7.9,4.5c-0.9,1.2,2.9,0.2,0.6,1.8c0.9,0.5,1.8,0.8,2.8,0.7c1-0.1,2,0,3,0.1
			c0.3,0.1,0.5,0.8,0.6,1.2c0,0-0.5,0.4-0.7,0.3c-1.9-0.5-3.9-0.3-5.7-1.1c-0.3-0.1-0.6-0.1-0.8-0.2c-1.8-1.2-4.7-0.1-5.2,1.8
			c-0.2,0.6-0.5,0.9,0.3,1.4c4.3,2.5,8,6,13.2,7c3.3,0.6,6.4-0.9,9.7-0.4c1.2,0.2,0.1-1.6,1.4-1.4c0.2,1.2,0.3,2.5-1.3,2.5
			c-4.7,0-9.6,2.1-14.1-0.8c-0.6-0.4-1.6-1.2-2,0.5c-0.2,0.6-0.7,0.2-0.9-0.3c-0.3-0.7-0.7-1.2-1.5-0.7c-0.4-0.2-1.2-0.5-1.2-0.7
			c0.2-2.6-2.3-2.9-3.5-4.2c-0.5-0.5-2.1-1.1-2.8,0.8c-0.5,1.3-0.8,2,0.8,2.3c1.2,0.2,1.5,1.3,2.3,2.1c0.5-0.9-0.7-1.9,0.3-2.6
			c1.4,0.7,1.6,3.6,4.2,2.3c-5.1,3,2.1,2.8,1,4.9c-0.8,0.4-1.4-0.9-2.4-0.8c-0.1,1,0.8,1.7,1,2.6c0.5,2,1.6,2.8,3.7,2.5
			c2.2-0.2,4.1,0.8,6.4,2.8c-3.6-0.7-6.6-0.9-9.2-1.9c-2.8-1.1-2.3-5.1-5.2-7.5c0.6,3.2,0,5.8,3.2,7.2c2.5,1.1,1.9,3.9,1.5,5.8
			c-0.6,2.6-1.7,5.2-3,7.5c-0.9,1.5-2.4,3-4.6,1.6c1.8-0.3,3.4-1.2,3.9-2.8c0.9-2.3,1.7-4.7,2.5-7.1c0.4-1,0.8-2.8-0.5-3.6
			c-3.8-2.2-4.1-5.8-4.2-9.6c0-1.9-1.4-2.5-3.1-2c-2.4,0.7-5.2,5.6-4.5,8c0.8,2.9,2,5.6,2.7,8.5c0.3,1.3,1,0.7,1.5,0.9l-0.1-0.1
			c-1.3,1.1-2.6,2.9-3.2-0.6c-0.3-1.6-0.7-3.4-1.9-4.8c-1.3,5.2,0.1,9.1,4.3,11.9c0.1,2.6,2.5,3.9,3.7,5.8c1.7,2.8,4.1,5,6.3,7.3
			c3.7,3.8,9.4,6.1,10.6,12.2c0.2,1.2,1.9,2.2,3.2,3.7c0.1-1.7,0.1-2.7,0.2-3.6c2.5-0.3,2.4,1.7,2.6,3.1c0.4,3.3,3.6,6.5,6.8,6.7
			c1.2,0.1,2.2-0.1,1.3,1.7c-0.6,1.2,0.9,1.8,1.6,2.6c4.5,5.3,6.7,11.6,7.8,18.3c-0.9,0.5,0.2,0.8,0.1,1.2c0.2,1,0.4,2.1,0.6,3.1
			c-1.3,1.5-1.9,8.4-0.8,9.9c0.5-1.7,0.9-3.4,1.4-5.1c0.2-0.2,0.5-0.5,0.7-0.7c1.4,1.4,0.1,3-0.2,4.1c-0.9,3.2-0.8,6.6-1.8,9.6
			c-1,3.2-3.3,6-4.9,9c-2.6,4.8-6.9,8.5-11.3,10.6c-6.3,3-12,7.4-19.2,8.5c-3.4,0.5-5.5,3.3-8.3,4.8c-0.4,0.2,0,2.5-1.1,0.3
			c-0.3-0.5-0.9-0.4-1.3-0.2c-3,1-4.7,3.7-4.6,7.2c0,1.1,0.4,2.4-0.4,3.4c-0.2,0.3-0.7,0.3-1,0.5c0-0.3-0.2-0.7-0.1-1
			c0.9-2.2-1.1-4.4,0.1-6.5c0.3-0.5-0.4-1.2-1-1.2c-1,0.1,0.1,0.7-0.1,1c-0.9,1.1-0.5,2.5-0.2,3.5c1.2,4.2-1.1,8.1-1.3,12.1
			c-0.1,1-1.4,0.7-1.8,0.4c-0.5-0.3-1-1.6-0.9-1.7c2.7-2,2.2-3.8-0.2-5.6c-0.4-0.3-0.3-1.1,0-1.7c0.6,0.6,0.5,2,2.1,1.8
			c-0.9-2.4,0.7-4.7,0-7.1c-0.6,0.2-1.1,1.1-2.1,0.2c3.1-1.4,2.2-4.2,2.3-6.6c0.2-5.3-0.9-10.6-0.8-15.9c0.1-3.8-0.5-7.5-0.9-11.2
			c-0.2-2.2-0.3-4.5-0.2-6.8c2.7,5.3,3.6,11.5,7.6,16.2c1-1-0.8-1.8,0.1-3c3.2,5.6,7.5,9.2,15.2,7.1c-1.4,2.1-3.2,1.2-3.7,2.5
			c4,1.3,8.6,1.2,11.9-0.6c7-3.8,14.5-7.4,18-15.4c1.2-2.8,3.9-5,2.8-8.6c-0.3-0.8,0.6-2,1.1-2.9c2.8-5,2.8-10.1,1.2-15.5
			c-1.6-5.2-4.5-9.8-6.7-14.7c-0.4-0.8-0.5-2-1.7-2.2C257.4,328.8,257,328.3,256.6,327.9z M239.8,308.4c-3.8-3.4-7.5-6.9-11.3-10.3
			c-0.3-0.3-0.7-0.8-1.2-0.2c-0.5,0.7,0.3,1.7,0.5,1.6c1.9-0.1,2.3,1.6,3.2,2.5C233.6,304.5,236.2,307.1,239.8,308.4z M221.4,293.1
			c0.3-0.1,0.5-0.2,0.8-0.3c-1.3-3.7-2.7-7.3-4-11C218.1,285.9,219.9,289.4,221.4,293.1z M264.8,337c0.2-3-2.1-4.5-3.7-6.4
			C261.4,333.3,263.5,334.8,264.8,337z"/>
		<path d="M231.9,406.7c1.5,1.6,3,3.1,4.5,4.7c0.1,0.1,0.2,0.1,0.3,0.1c4.2-1.6,8.4,1.3,12.7,0.1c1.8-0.5,1.2-2.2,1.6-3.2
			c0.4-1.4-0.7-2.6-2-3.2c-1.4-0.6-3-0.9-4.6-0.8c-0.6,0-1.7,0.4-1.4-0.8c0.3-1,0.8-0.2,1.3,0c0.8,0.2,1.7-0.5,2.7-0.4
			c2.3,0.3,3.7,1.2,4.4,3.6c0.7,2.4,0.3,4.8-1.6,6c-2.5,1.5-5.6,1-8.4,0.2c-0.5-0.1-1-1-1.5-0.6c-4,2.6-5.4-1.5-7.8-3
			c-0.2-0.1-0.3-0.8-0.8-0.6c-0.6,0.3,0.2,0.6,0.1,0.9c-0.1,0.1-0.2,0.3-0.3,0.4c-0.3-0.3-0.7-0.5-0.7-0.8c0.1-2.4-0.7-3.7-3.3-3.8
			c-1,0-0.7-1.3-0.5-1.9c0.2-0.7,0.9-0.3,1.4,0c2.9,1.2,5.8,2.2,8.9,1c0.4-0.2,0.7,0.1,0.4,0.6c-1,1.6,1,1,1.2,1.6
			c0.9-0.8,1.3-0.2,1.7,0.6c0.3,0.7-0.1,1.3-0.4,1.6c-0.6,0.6-1.6,0.6-2.2,0C236,407.4,234.2,406.8,231.9,406.7z"/>
		<path d="M206,330.5c0.3-0.1,0.5-0.2,0.8-0.2c1.1,0.1,2.8-0.7,3,0c0.5,1.8-1.6,0.6-2.3,1.3c-0.5,0.5-1.6,0.6-0.7,1.7
			c0.3,0.3,0.3,1,0.2,1.4c-0.5,1.2,1.4,3.1-0.5,3.5c-0.9,0.2-1.5-2.1-1.9-3.5c-0.8-2.8-0.2-5.9-2.2-8.5c-0.4-0.5,1.4-2.6,2.2-3.1
			c1.8-1.1,3.7-2.5,6.1-2.7c0.7,0,1.3-0.5,1.6,0.4c0.2,0.6,0.2,1.2-0.4,1.6c-0.6,0.5-1.2,1.2-1.7,1.5
			C205.7,326.2,205.7,326.1,206,330.5z"/>
		<path d="M266.2,314.8c3.8-2.4,11.8,0.8,12.4,5.1c0.3,1.9-0.8,3.9-2.7,4.3c-1.9,0.4-3.5,1.2-5.2,1.8c-1.2,0.4-3,0.8-2.6-1.7
			c0,0-0.1,0.1-0.1,0.1c2.2-0.2,4.5-0.3,6.7-0.7c1.4-0.3,1.7-1.9,2.5-2.9c0.2-0.3,0-1.4-0.4-1.7c-2.9-2.3-6-4.2-9.9-3.6
			C266.6,315.2,266.4,315,266.2,314.8z"/>
		<path d="M285.3,312.8c-0.6,1.3-1.2,2-1.2,3c0,1.9-0.1,3.1,2.6,2.7c2.9-0.4,5.7,1.7,5.8,3.7c0.2,2.9-1.3,4.5-4.4,5
			c0.1-0.9,0.6-1.4,1.3-1.9c0.9-0.7,1.7-1.8,1.2-3.1c-0.5-1.3-1.4-2-2.9-2c-1,0-1.9-0.1-2.8-0.5c-1-0.5-2.4-0.2-2.5-1.9
			C282.2,316.1,283.3,313.9,285.3,312.8z"/>
		<path d="M335.6,195.4c-0.4,1.3-0.4,2.9-2.2,3.3c-0.4,0.1-0.8,0.6-0.2,1.1c0.4,0.3,0.6,1.2,1.3,0.6c0.9-0.8,2-0.5,3.6-0.9
			c-1.7,1.6-3.3,2-5.2,2c0.8,0.5,1.5,0.7,1.9,1.2c0.5,0.6,2.2,0.4,1.7,1.6c-0.6,1.5-2,0.6-2.8,0c-1.5-1-3.6-1.6-3.4-4.1
			c0.4-1.2,0.8-2.5,1.3-3.7c2.1,1.4,2.9,0.7,3.1-1.7C334.7,194.2,335.1,195.7,335.6,195.4L335.6,195.4z"/>
		<path d="M219.7,429.7c2.6,1.5,5.1,2.1,7.5-0.5c0.6-0.7,1.8-0.7,2.7-1.1c2.1-0.8,5-0.7,4.7-4.4c-0.2-1.9,2.1-1.5,3.4-2
			c1.3-0.5,3.5-0.3,2-3.1c1.6,2.6,0.9,4.1-2.1,4.2c-2.2,0.1-3,0.6-3,2.9c0.1,3.5-3.3,2.7-5.1,3.6c-0.9,0.5-2,0.5-2.9,1.5
			c-1.7,2.1-5.2,2-7.2,0.2C219.4,430.7,219.5,430.2,219.7,429.7L219.7,429.7z"/>
		<path d="M219.7,429.7c-0.7,0.6-1.4,0.9-2.2-0.1c-1.4-1.8-3.1-1.8-5-0.9c-2.7,1.2-4.9,0.9-6-2.3c-0.3-1-1.1-1.5-1.9-2.1
			c-1.1-0.7-2.4-1.6-1.7-3.4c0.4,0.6,0.7,1.4,1.2,1.8c1.6,1.4,3.5,2.2,4,4.7c0.3,1.6,2,0.8,3.2,0.3c3.3-1.4,6.5-1,9.7,0.3
			c0.1,0.1,0.1,0.6,0.1,0.9c-1,0.5-1.7-0.7-2.7-0.6C218.6,429.1,219.2,429.4,219.7,429.7C219.7,429.7,219.7,429.7,219.7,429.7z"/>
		<path d="M394.6,333.7c0.2-0.8,0.2-1.1,0.3-1.3c1.8-3.2,1.6-5-1.1-7.8c-0.8-0.8-1.6-1.5-2.3-2.3c-1.1-1.3-1.5-2.5,0.6-3.4
			c-0.1,2.3,1.4,3.7,2.9,5.1c1.2,1.2,2.2,2.3,2.6,4.1C398.4,330.9,397.5,332.4,394.6,333.7z"/>
		<path d="M308.3,199.3c-1.3,1.3-2.5,1.9-1.6,3.3c0.7,1.2,1.2,2.4,3,2.4c1,0,1.9,0.2,2.9,0.2c0.5,0,1-1.7,1.5-0.1
			c0.4,1-0.7,1.1-1.2,1.4c-2.7,1.2-7.1,0-7.8-2.2C304.5,202,304.8,200.2,308.3,199.3z"/>
		<path d="M246.6,261.3c-1.7,0.4-3.2,0.3-4.7-0.8c-2.2-1.5-5-1.3-7.6-1.7c-0.9-0.1-1.1-0.4-0.8-0.8c0.7-1,2.2-0.6,3.1-1.7
			c0.4-0.5,1.4,0.3,1.6,1.2c0.1,0.3-0.2,1,0.5,0.8C242.1,257.2,243.7,260.9,246.6,261.3z"/>
		<path d="M316.6,217.7c1-3,1-6,0.5-9c-0.2-1.3-0.1-1.3-1.5-2.6c-0.2-0.1-0.3-0.7-0.2-0.8c0.6-0.6,1.2-1.1,1.8-1.6
			c0.2-0.1,0.8-0.1,0.7,0.5c-0.3,3,1.4,5.8,0.9,8.9C318.7,214.9,318.6,216.7,316.6,217.7z"/>
		<path d="M229.8,330.2c-3,0.1-2.3-2.5-2.8-4.1c-0.1-0.4-0.3-1.4,0.2-2.4c1.6,2.6,2.5,1,3.9-0.2c1.2-1,2.9-1.3,4.7-2
			c-0.4,2.3-2.2,2.3-3.5,2.8c-3.6,1.4-4.1,2.2-3.1,5.4C229.3,329.8,229.5,330,229.8,330.2z"/>
		<path d="M317,341.9c1.7,0.6,1.2,3.2,2.4,2.9c1.7-0.5,0.1-2.5,0.6-3.8c0.1-0.3,0.1-0.7,0.3-1.1c0.3,2.9,1.5,5.8,0.3,8.7
			c-0.2,0.5,0.9,1.1-0.1,1.4c-1.2,0.4-1.5-0.9-1.5-1.4C318.9,346.3,317.4,344.3,317,341.9z"/>
		<path d="M342,189.8c4.7,6.2,5.5,6.9,8.9,7.6C347.5,198.9,340.9,195.1,342,189.8z"/>
		<path d="M266.2,314.8c0.2,0.2,0.5,0.5,0.7,0.7c-0.9,1-0.6,2.2-0.6,3.3c0,2.1,1.6,3.6,1.7,5.6c0,0,0.1-0.1,0.1-0.1
			c-1.3,0.1-2.4-0.1-2.5-1.7c-0.1-1-0.2-2-0.6-2.8C263.9,317.7,264.4,316.1,266.2,314.8z"/>
		<path d="M331.5,196.5c-0.4,1.2-0.8,2.5-1.3,3.7c-0.9-2.6,0.2-6.7,2.3-7.9c1.1-0.6,2.6-0.3,3.4,0.3c0.6,0.4,0.8,1.9-0.3,2.7
			c0,0,0.1,0.1,0.1,0.1c-0.4-0.7,0.8-2.3-0.9-2.2c-0.8,0-2.6-0.7-2.4,0.5C332.7,195.1,331.6,195.5,331.5,196.5z"/>
		<path d="M218.9,324.4c2,2.1,1.9,4.9,2.5,7.4c0.1,0.5,0.2,1.3-0.7,1.3c-0.6,0-1.1-0.6-1-1.3C219.8,329.3,218.8,327,218.9,324.4z"/>
		<path d="M229.8,330.2c-0.2-0.2-0.4-0.4-0.7-0.5c2.9-1,5.8-2,9.2-3.1C236.1,329.2,231.8,330.9,229.8,330.2z"/>
		<path d="M227,320.8c3.7-2.9,5.8-3.3,9.5-1.5C233,319.7,229.9,319.9,227,320.8z"/>
		<path d="M309.4,198.5c3.7-1.2,6.4,0.1,7.6,3c0.3,0.8-0.1,1.1-0.6,1.4c-0.4,0.3-0.9,0.1-0.9-0.3
			C315.1,198.9,312.2,198.8,309.4,198.5z"/>
		<path d="M312.9,209.9c0.8,2.6-1.2,6.3,3.3,7.2C311.4,215.9,311,214.9,312.9,209.9z"/>
		<path d="M306.2,326.2c-2.4-1.4-3.9-4-6.6-5.1c3.5-0.2,5.2,2.5,7.3,4.5C306.6,325.8,306.4,326,306.2,326.2z"/>
		<path d="M279.3,217c1.8-4.4,5.8-3.8,8.7-5.3C285.2,213.3,282.5,215,279.3,217z"/>
		<path d="M256.6,327.9c0.4,0.4,0.9,0.8,1.3,1.2c0.5,3.7,0.7,7.4,0.2,11.2C258.1,336.1,257.2,332,256.6,327.9z"/>
		<path d="M327.5,202.7c-2,1.1-3.9,1.3-6,0.5c-1.2-0.5-1.5-1.5-1.9-2.4c-0.1-0.2,0.2-0.5,0.4-0.7c0.1-0.1,0.4-0.6,0.6-0.1
			C321.9,203.3,325,202.2,327.5,202.7z"/>
		<path d="M289.8,310.6c0.9-0.2,1.9,0.3,2.5,1c0.5,0.5-0.3,1-0.7,1.4c-0.2,0.2-4.4-0.7-4.4-1C287.4,310.4,288.6,310.7,289.8,310.6z"
			/>
		<path d="M306.2,326.2c0.2-0.2,0.5-0.5,0.7-0.7c1.7,0.5,3.1,1.8,5,1.9c0.7,0,1.5,0.2,1.2,1.1c-0.2,0.8-1.1,0.9-1.7,0.6
			C309.6,328.2,307.5,327.8,306.2,326.2z"/>
		<path d="M332.7,337.1c-0.1,3.6,1.1,5.7,3.5,6.2c-1.3,1.6-2.5,0.6-3.4-0.4C331.5,341.5,331.6,338.4,332.7,337.1z"/>
		<path d="M271.6,354.8c-0.2,0.2-0.5,0.5-0.7,0.7c-1.6-1.4,1-3.3-0.5-4.8c-0.2-1-0.4-2.1-0.6-3.1l0.3,0l0.3-0.1
			C272.5,349.7,272.4,352.2,271.6,354.8z"/>
		<path d="M227.6,408c0,2.6-1.4,4.9-0.4,7.3c0.1,0.3,0.3,1-0.3,1.3c-0.3,0.1-0.9,0.2-1.1,0.1c-0.8-0.7,0.4-0.8,0.4-1.1
			c0.1-0.7,0-1.6-0.3-2.3C225,411.1,225.9,409.6,227.6,408z"/>
		<path d="M249.3,255.1c0.3-3.3,2.6-1.1,3.8-1.4c1.5-0.3,2.4,1.5,2.3,3.7C254.2,254,251.6,254.8,249.3,255.1z"/>
		<path d="M244,274.3c-1.4-1.9-2.6-3.5-3.7-5c-0.3-0.4-1.1-0.8-0.3-1.3c0.8-0.5,0.9,0.6,1.1,0.8C242.3,270.3,244.3,271.4,244,274.3z
			"/>
		<path d="M250.8,381.7c-1.8,2.7-4.2,3.8-7.3,2.9C246,383.8,248.8,383.7,250.8,381.7z"/>
		<path d="M239.8,418.2c-4.8-2.5-4.8-2.5-5.4-4.8C235.4,415.6,238.7,415.3,239.8,418.2z"/>
		<path d="M226.5,282.1c-0.5-3,0.7-5.6,1.2-8.9c2.2,2.4,1.3,5.5,4.1,6.7c-2.3,0.7-2.3,0.7-3.2-3.1
			C227.4,278.5,228.2,280.9,226.5,282.1C226.4,282,226.5,282.1,226.5,282.1z"/>
	</g>
</g>
<g id="BLOEMEN">
</g>
<g id="LETTERS">
	<g>
		<path class="st2" d="M254.4,197.6c0,0,8.3,9.4-0.1,16c0,0-6.7,7.6,11.5,15.9c0,0,18.5,3.8,18.2,8.3c0,0-1.6-17-5.5-26.2
			c0,0-12.9-21.3-18.3-19.9"/>
		<path class="st3" d="M242.7,210c0,0-9.4,13.4-6.5,16.7c-2.6,1.1,10.8,10.6,9.4,14.3c0,0-2.4,11.8-4.3,11.1
			c-0.7,1.9,20.2-13.5,19.7-18c0.7-1.9,5-13,3.5-20c2.6-1.1-7.3-19.9-11.7-19.4"/>
		<path class="st3" d="M266.6,183c0,0,20.9,17.2,34.9,14.4c0,0,12.6,8.5,4.4,18c0,0-8.6,5.1-4.6,11c-2.6,1.1-28-5.1-29.4-12.2
			c-1.1-2.6-14.9-21.2-15.2-25.7"/>
		<path class="st2" d="M309.6,370.3c0,0-9.2-10.2-0.1-17.6c0,0,7.3-8.4-12.8-17.2c0,0-20.3-4-20-8.9c0,0,2,18.6,6.3,28.6
			c0,0,14.4,23.2,20.3,21.5"/>
		<path class="st3" d="M325.1,354c0,0,8.5-15.8,4.8-19c2.6-1.6-13.2-10.1-12.1-14.3c0,0,1.1-13.2,3.2-12.7
			c0.5-2.1-20.1,17.4-19.1,22.1c-0.5,2.1-3.8,14.8-1.1,22.2c-2.6,1.6,10.5,20.6,15.2,19.6"/>
		<path class="st3" d="M300,380.6c0,0-26.5-13.3-40.8-6.9c0,0-15.6-5.9-9.1-18.1c0,0,7.9-7.5,2.2-12.9c2.5-1.8,31.2-1.4,34.4,5.8
			c1.8,2.5,21.1,19,22.5,23.7"/>
		<g>
			<g>
				<path class="st4" d="M332.2,232.6h-6c-1.8-13.2-4.2-19.8-9.3-27c-18.1-25.5-56.9-25.2-72.9,2.5c-11.2,19.4-5.9,46.9,14.8,57.1
					c19.5,9.6,43.2,6.3,62.1,17.5c23.3,13.9,27.4,44.1,17.7,67.9c-9,22.1-30.6,35.9-54.3,35.9c-18,0-30.3-5.4-46.2-19.8l-10.5,16.8
					h-3.9l-2.1-62.1h6c2.4,16.5,5.1,24.3,11.1,33.3c10.5,16.2,27.6,25.8,46.2,25.8c32.2,0,55.4-40,41-69
					c-6-12.2-19.6-18.8-32.8-22.4c-29.8-8.1-63.4-12.6-67.7-49.3c-3.9-33.4,23.7-59.4,54.6-59.4c13.5,0,25.5,4.2,38.4,13.2l9.3-12.9
					h4.2L332.2,232.6z"/>
			</g>
			<g>
				<path class="st5" d="M216.8,297.2v-33.3h17.2v1.9h-15v14.1h14.4v1.9H219v15.5H216.8z"/>
				<path class="st5" d="M241.3,297.2v-33.3h2.2v33.3H241.3z"/>
				<path class="st5" d="M252.8,297.2v-33.3h17.1v1.9H255v13.4h14.3v1.9H255v14.2h15v1.9H252.8z"/>
				<path class="st5" d="M277.5,297.2v-33.3h2.2v31.4h14.2v1.9H277.5z"/>
				<path class="st5" d="M325.8,280.5c0,2.4-0.5,4.6-1.4,6.7c-0.9,2-2.2,3.8-3.9,5.3c-1.7,1.5-3.7,2.6-6,3.5
					c-2.3,0.8-4.9,1.2-7.6,1.2h-7.2v-33.3h7.2c2.8,0,5.3,0.4,7.6,1.2c2.3,0.8,4.3,2,6,3.5s3,3.2,3.9,5.3
					C325.4,275.9,325.8,278.1,325.8,280.5z M323.6,280.5c0-2.3-0.5-4.4-1.4-6.2c-0.9-1.8-2.1-3.4-3.7-4.6c-1.5-1.3-3.3-2.2-5.3-2.9
					c-2-0.7-4.1-1-6.3-1h-5.1v29.5h5.1c2.2,0,4.3-0.3,6.3-1c2-0.7,3.8-1.6,5.3-2.9s2.7-2.8,3.7-4.6
					C323.2,284.9,323.6,282.8,323.6,280.5z"/>
				<path class="st5" d="M350.1,288.8c0,1.3-0.3,2.5-0.8,3.6s-1.2,2-2.2,2.8c-0.9,0.8-2,1.4-3.3,1.9s-2.7,0.6-4.3,0.6
					c-1.5,0-3.1-0.2-4.7-0.5c-1.6-0.4-3.1-0.8-4.3-1.4l0.5-1.9c1.4,0.6,2.7,1.1,4,1.4c1.3,0.3,2.8,0.5,4.3,0.5
					c2.6,0,4.7-0.6,6.2-1.9s2.3-3,2.3-5.1c0-1.2-0.2-2.2-0.7-3s-1.1-1.6-1.8-2.2c-0.8-0.6-1.6-1.2-2.6-1.7c-1-0.5-2-1-3-1.5
					c-1.2-0.6-2.4-1.2-3.4-1.8c-1.1-0.6-2-1.2-2.7-1.9s-1.3-1.5-1.8-2.4c-0.4-0.9-0.6-2-0.6-3.2c0-1.3,0.3-2.5,0.8-3.5
					c0.5-1,1.2-1.8,2.1-2.4c0.9-0.6,1.9-1.1,3-1.4c1.1-0.3,2.3-0.5,3.5-0.5c1.5,0,2.9,0.2,4.3,0.5c1.4,0.3,2.6,0.8,3.7,1.4l-0.5,1.9
					c-1.2-0.6-2.4-1-3.7-1.3c-1.2-0.3-2.5-0.5-3.8-0.5c-2.1,0-3.8,0.5-5.2,1.4s-2.1,2.4-2.1,4.4c0,1,0.1,1.8,0.4,2.5
					c0.3,0.7,0.7,1.3,1.3,1.8s1.3,1.1,2.1,1.6c0.9,0.5,1.9,1,3,1.5c1.1,0.5,2.2,1.1,3.3,1.7c1.1,0.6,2.2,1.3,3.1,2.2
					c1,0.8,1.7,1.8,2.4,2.8C349.8,286.1,350.1,287.4,350.1,288.8z"/>
			</g>
		</g>
	</g>
</g>
</svg>
